<?xml version="1.0" encoding="UTF-8" standalone="no"?>
<svg
   xmlns:dc="http://purl.org/dc/elements/1.1/"
   xmlns:cc="http://creativecommons.org/ns#"
   xmlns:rdf="http://www.w3.org/1999/02/22-rdf-syntax-ns#"
   xmlns:svg="http://www.w3.org/2000/svg"
   xmlns="http://www.w3.org/2000/svg"
   viewBox="0 0 1280 720"
   height="720"
   width="1280"
   xml:space="preserve"
   id="svg9180"
   version="1.1"><metadata
     id="metadata9186"><rdf:RDF><cc:Work
         rdf:about=""><dc:format>image/svg+xml</dc:format><dc:type
           rdf:resource="http://purl.org/dc/dcmitype/StillImage" /><dc:title></dc:title></cc:Work></rdf:RDF></metadata><defs
     id="defs9184"><clipPath
       id="clipPath9198"
       clipPathUnits="userSpaceOnUse"><path
         id="path9196"
         d="M 0,540 H 959.76 V 0 H 0 Z" /></clipPath><clipPath
       id="clipPath9204"
       clipPathUnits="userSpaceOnUse"><path
         id="path9202"
         d="M 0,0 H 960 V 540 H 0 Z" /></clipPath><clipPath
       id="clipPath9214"
       clipPathUnits="userSpaceOnUse"><path
         id="path9212"
         d="M 0,0 H 960 V 540 H 0 Z" /></clipPath></defs><g
     transform="matrix(1.3333333,0,0,-1.3333333,0,720)"
     id="g9188"><g
       id="g9190" /><g
       id="g9192"><g
         clip-path="url(#clipPath9198)"
         id="g9194"><g
           clip-path="url(#clipPath9204)"
           id="g9200"><path
             id="path9206"
             style="fill:#ffffff;fill-opacity:1;fill-rule:nonzero;stroke:none"
             d="M 0,540 H 959.76 V 0 H 0 Z" /></g></g></g><g
       id="g9208"><g
         clip-path="url(#clipPath9214)"
         id="g9210"><path
           id="path9216"
           style="fill:#ffffff;fill-opacity:1;fill-rule:nonzero;stroke:none"
           d="M 0,540 H 960 V 0 H 0 Z" /><g
           transform="matrix(0.24,0,0,0.24,154.0672,-142.32)"
           id="g9218"><text
             id="text9222"
             style="font-variant:normal;font-weight:bold;font-size:33.33332825px;font-family:Calibri;-inkscape-font-specification:Calibri-Bold;writing-mode:lr-tb;fill:#000000;fill-opacity:1;fill-rule:nonzero;stroke:none"
             transform="matrix(1,0,0,-1,0,2250)"><tspan
               id="tspan9220"
               y="0"
               x="0 16.666664">T1</tspan></text>
</g><g
           transform="matrix(0.24,0,0,0.24,154.0672,-153.84)"
           id="g9224"><text
             id="text9228"
             style="font-variant:normal;font-weight:bold;font-size:33.33332825px;font-family:Calibri;-inkscape-font-specification:Calibri-Bold;writing-mode:lr-tb;fill:#000000;fill-opacity:1;fill-rule:nonzero;stroke:none"
             transform="matrix(1,0,0,-1,0,2250)"><tspan
               id="tspan9226"
               y="0"
               x="0 16.666664">T2</tspan></text>
</g><g
           transform="matrix(0.24,0,0,0.24,154.0672,-166.08)"
           id="g9230"><text
             id="text9234"
             style="font-variant:normal;font-weight:bold;font-size:33.33332825px;font-family:Calibri;-inkscape-font-specification:Calibri-Bold;writing-mode:lr-tb;fill:#000000;fill-opacity:1;fill-rule:nonzero;stroke:none"
             transform="matrix(1,0,0,-1,0,2250)"><tspan
               id="tspan9232"
               y="0"
               x="0 16.666664">T3</tspan></text>
</g><g
           transform="matrix(0.24,0,0,0.24,154.0672,-178.32)"
           id="g9236"><text
             id="text9240"
             style="font-variant:normal;font-weight:bold;font-size:33.33332825px;font-family:Calibri;-inkscape-font-specification:Calibri-Bold;writing-mode:lr-tb;fill:#000000;fill-opacity:1;fill-rule:nonzero;stroke:none"
             transform="matrix(1,0,0,-1,0,2250)"><tspan
               id="tspan9238"
               y="0"
               x="0 16.666664">T4</tspan></text>
</g><g
           transform="matrix(0.24,0,0,0.24,154.0672,-190.32)"
           id="g9242"><text
             id="text9246"
             style="font-variant:normal;font-weight:bold;font-size:33.33332825px;font-family:Calibri;-inkscape-font-specification:Calibri-Bold;writing-mode:lr-tb;fill:#000000;fill-opacity:1;fill-rule:nonzero;stroke:none"
             transform="matrix(1,0,0,-1,0,2250)"><tspan
               id="tspan9244"
               y="0"
               x="0 16.666664">T5</tspan></text>
</g><g
           transform="matrix(0.24,0,0,0.24,154.0672,-202.56)"
           id="g9248"><text
             id="text9252"
             style="font-variant:normal;font-weight:bold;font-size:33.33332825px;font-family:Calibri;-inkscape-font-specification:Calibri-Bold;writing-mode:lr-tb;fill:#000000;fill-opacity:1;fill-rule:nonzero;stroke:none"
             transform="matrix(1,0,0,-1,0,2250)"><tspan
               id="tspan9250"
               y="0"
               x="0 16.666664">T6</tspan></text>
</g><g
           transform="matrix(0.24,0,0,0.24,154.0672,-217.2)"
           id="g9254"><text
             id="text9258"
             style="font-variant:normal;font-weight:bold;font-size:33.33332825px;font-family:Calibri;-inkscape-font-specification:Calibri-Bold;writing-mode:lr-tb;fill:#000000;fill-opacity:1;fill-rule:nonzero;stroke:none"
             transform="matrix(1,0,0,-1,0,2250)"><tspan
               id="tspan9256"
               y="0"
               x="0 16.666664">T7</tspan></text>
</g><g
           transform="matrix(0.24,0,0,0.24,154.0672,-234.24)"
           id="g9260"><text
             id="text9264"
             style="font-variant:normal;font-weight:bold;font-size:33.33332825px;font-family:Calibri;-inkscape-font-specification:Calibri-Bold;writing-mode:lr-tb;fill:#000000;fill-opacity:1;fill-rule:nonzero;stroke:none"
             transform="matrix(1,0,0,-1,0,2250)"><tspan
               id="tspan9262"
               y="0"
               x="0 16.666664">T8</tspan></text>
</g><g
           transform="matrix(0.24,0,0,0.24,154.0672,-254.16)"
           id="g9266"><text
             id="text9270"
             style="font-variant:normal;font-weight:bold;font-size:33.33332825px;font-family:Calibri;-inkscape-font-specification:Calibri-Bold;writing-mode:lr-tb;fill:#000000;fill-opacity:1;fill-rule:nonzero;stroke:none"
             transform="matrix(1,0,0,-1,0,2250)"><tspan
               id="tspan9268"
               y="0"
               x="0 16.666664">T9</tspan></text>
</g><g
           transform="matrix(0.24,0,0,0.24,150.0281,-271.44)"
           id="g9272"><text
             id="text9276"
             style="font-variant:normal;font-weight:bold;font-size:33.33332825px;font-family:Calibri;-inkscape-font-specification:Calibri-Bold;writing-mode:lr-tb;fill:#000000;fill-opacity:1;fill-rule:nonzero;stroke:none"
             transform="matrix(1,0,0,-1,0,2250)"><tspan
               id="tspan9274"
               y="0"
               x="0 16.666664 33.333328">T10</tspan></text>
</g><g
           transform="matrix(0.24,0,0,0.24,150.0281,-288)"
           id="g9278"><text
             id="text9282"
             style="font-variant:normal;font-weight:bold;font-size:33.33332825px;font-family:Calibri;-inkscape-font-specification:Calibri-Bold;writing-mode:lr-tb;fill:#000000;fill-opacity:1;fill-rule:nonzero;stroke:none"
             transform="matrix(1,0,0,-1,0,2250)"><tspan
               id="tspan9280"
               y="0"
               x="0 16.666664 33.333328">T11</tspan></text>
</g><g
           transform="matrix(0.24,0,0,0.24,150.0281,-304.32)"
           id="g9284"><text
             id="text9288"
             style="font-variant:normal;font-weight:bold;font-size:33.33332825px;font-family:Calibri;-inkscape-font-specification:Calibri-Bold;writing-mode:lr-tb;fill:#000000;fill-opacity:1;fill-rule:nonzero;stroke:none"
             transform="matrix(1,0,0,-1,0,2250)"><tspan
               id="tspan9286"
               y="0"
               x="0 16.666664 33.333328">T12</tspan></text>
</g><g
           transform="matrix(0.24,0,0,0.24,154.6982,-320.88)"
           id="g9290"><text
             id="text9294"
             style="font-variant:normal;font-weight:bold;font-size:33.33332825px;font-family:Calibri;-inkscape-font-specification:Calibri-Bold;writing-mode:lr-tb;fill:#000000;fill-opacity:1;fill-rule:nonzero;stroke:none"
             transform="matrix(1,0,0,-1,0,2250)"><tspan
               id="tspan9292"
               y="0"
               x="0">L</tspan></text>
</g><g
           transform="matrix(0.24,0,0,0.24,158.0732,-320.88)"
           id="g9296"><text
             id="text9300"
             style="font-variant:normal;font-weight:bold;font-size:33.33332825px;font-family:Calibri;-inkscape-font-specification:Calibri-Bold;writing-mode:lr-tb;fill:#000000;fill-opacity:1;fill-rule:nonzero;stroke:none"
             transform="matrix(1,0,0,-1,0,2250)"><tspan
               id="tspan9298"
               y="0"
               x="0">1</tspan></text>
</g><g
           transform="matrix(0.24,0,0,0.24,154.6982,-335.76)"
           id="g9302"><text
             id="text9306"
             style="font-variant:normal;font-weight:bold;font-size:33.33332825px;font-family:Calibri;-inkscape-font-specification:Calibri-Bold;writing-mode:lr-tb;fill:#000000;fill-opacity:1;fill-rule:nonzero;stroke:none"
             transform="matrix(1,0,0,-1,0,2250)"><tspan
               id="tspan9304"
               y="0"
               x="0">L</tspan></text>
</g><g
           transform="matrix(0.24,0,0,0.24,158.0732,-335.76)"
           id="g9308"><text
             id="text9312"
             style="font-variant:normal;font-weight:bold;font-size:33.33332825px;font-family:Calibri;-inkscape-font-specification:Calibri-Bold;writing-mode:lr-tb;fill:#000000;fill-opacity:1;fill-rule:nonzero;stroke:none"
             transform="matrix(1,0,0,-1,0,2250)"><tspan
               id="tspan9310"
               y="0"
               x="0">2</tspan></text>
</g><g
           transform="matrix(0.24,0,0,0.24,154.6982,-350.16)"
           id="g9314"><text
             id="text9318"
             style="font-variant:normal;font-weight:bold;font-size:33.33332825px;font-family:Calibri;-inkscape-font-specification:Calibri-Bold;writing-mode:lr-tb;fill:#000000;fill-opacity:1;fill-rule:nonzero;stroke:none"
             transform="matrix(1,0,0,-1,0,2250)"><tspan
               id="tspan9316"
               y="0"
               x="0">L</tspan></text>
</g><g
           transform="matrix(0.24,0,0,0.24,158.0732,-350.16)"
           id="g9320"><text
             id="text9324"
             style="font-variant:normal;font-weight:bold;font-size:33.33332825px;font-family:Calibri;-inkscape-font-specification:Calibri-Bold;writing-mode:lr-tb;fill:#000000;fill-opacity:1;fill-rule:nonzero;stroke:none"
             transform="matrix(1,0,0,-1,0,2250)"><tspan
               id="tspan9322"
               y="0"
               x="0">3</tspan></text>
</g><path
           id="path9326"
           style="fill:#afabab;fill-opacity:1;fill-rule:nonzero;stroke:none"
           d="m 387.3925,447.8618 c 0,4.6966 1.6499,8.5039 3.6851,8.5039 2.0351,0 3.685,-3.8073 3.685,-8.5039 0,-4.6966 -1.6499,-8.5039 -3.685,-8.5039 -2.0352,0 -3.6851,3.8073 -3.6851,8.5039 z" /><path
           id="path9328"
           style="fill:#afabab;fill-opacity:1;fill-rule:nonzero;stroke:none"
           d="m 387.3925,431.4465 c 0,4.6966 1.6499,8.5039 3.6851,8.5039 2.0351,0 3.685,-3.8073 3.685,-8.5039 0,-4.6966 -1.6499,-8.504 -3.685,-8.504 -2.0352,0 -3.6851,3.8074 -3.6851,8.504 z" /><path
           id="path9330"
           style="fill:#afabab;fill-opacity:1;fill-rule:nonzero;stroke:none"
           d="m 387.3925,415.0311 c 0,4.6966 1.6499,8.5039 3.6851,8.5039 2.0351,0 3.685,-3.8073 3.685,-8.5039 0,-4.6966 -1.6499,-8.5039 -3.685,-8.5039 -2.0352,0 -3.6851,3.8073 -3.6851,8.5039 z" /><path
           id="path9332"
           style="fill:#afabab;fill-opacity:1;fill-rule:nonzero;stroke:none"
           d="m 387.3925,400.7417 c 0,3.5225 1.6499,6.378 3.6851,6.378 2.0351,0 3.685,-2.8555 3.685,-6.378 0,-3.5224 -1.6499,-6.3779 -3.685,-6.3779 -2.0352,0 -3.6851,2.8555 -3.6851,6.3779 z" /><path
           id="path9334"
           style="fill:#afabab;fill-opacity:1;fill-rule:nonzero;stroke:none"
           d="m 387.3925,388.5783 c 0,3.5225 1.6499,6.378 3.6851,6.378 2.0351,0 3.685,-2.8555 3.685,-6.378 0,-3.5224 -1.6499,-6.3779 -3.685,-6.3779 -2.0352,0 -3.6851,2.8555 -3.6851,6.3779 z" /><path
           id="path9336"
           style="fill:#afabab;fill-opacity:1;fill-rule:nonzero;stroke:none"
           d="m 387.3925,376.415 c 0,3.5224 1.6499,6.3779 3.6851,6.3779 2.0351,0 3.685,-2.8555 3.685,-6.3779 0,-3.5225 -1.6499,-6.378 -3.685,-6.378 -2.0352,0 -3.6851,2.8555 -3.6851,6.378 z" /><path
           id="path9338"
           style="fill:#afabab;fill-opacity:1;fill-rule:nonzero;stroke:none"
           d="m 387.3925,364.2516 c 0,3.5224 1.6499,6.3779 3.6851,6.3779 2.0351,0 3.685,-2.8555 3.685,-6.3779 0,-3.5225 -1.6499,-6.378 -3.685,-6.378 -2.0352,0 -3.6851,2.8555 -3.6851,6.378 z" /><path
           id="path9340"
           style="fill:#afabab;fill-opacity:1;fill-rule:nonzero;stroke:none"
           d="m 387.3925,352.0882 c 0,3.5224 1.6499,6.378 3.6851,6.378 2.0351,0 3.685,-2.8556 3.685,-6.378 0,-3.5224 -1.6499,-6.378 -3.685,-6.378 -2.0352,0 -3.6851,2.8556 -3.6851,6.378 z" /><path
           id="path9342"
           style="fill:#afabab;fill-opacity:1;fill-rule:nonzero;stroke:none"
           d="m 387.3925,339.9248 c 0,3.5225 1.6499,6.378 3.6851,6.378 2.0351,0 3.685,-2.8555 3.685,-6.378 0,-3.5224 -1.6499,-6.3779 -3.685,-6.3779 -2.0352,0 -3.6851,2.8555 -3.6851,6.3779 z" /><path
           id="path9344"
           style="fill:#afabab;fill-opacity:1;fill-rule:nonzero;stroke:none"
           d="m 387.3925,325.6354 c 0,4.6966 1.6499,8.504 3.6851,8.504 2.0351,0 3.685,-3.8074 3.685,-8.504 0,-4.6966 -1.6499,-8.5039 -3.685,-8.5039 -2.0352,0 -3.6851,3.8073 -3.6851,8.5039 z" /><path
           id="path9346"
           style="fill:#afabab;fill-opacity:1;fill-rule:nonzero;stroke:none"
           d="m 387.3925,307.8028 c 0,5.4793 1.6499,9.9212 3.6851,9.9212 2.0351,0 3.685,-4.4419 3.685,-9.9212 0,-5.4794 -1.6499,-9.9213 -3.685,-9.9213 -2.0352,0 -3.6851,4.4419 -3.6851,9.9213 z" /><path
           id="path9348"
           style="fill:#afabab;fill-opacity:1;fill-rule:nonzero;stroke:none"
           d="m 387.3925,288.5528 c 0,5.4793 1.6499,9.9212 3.6851,9.9212 2.0351,0 3.685,-4.4419 3.685,-9.9212 0,-5.4794 -1.6499,-9.9213 -3.685,-9.9213 -2.0352,0 -3.6851,4.4419 -3.6851,9.9213 z" /><path
           id="path9350"
           style="fill:#afabab;fill-opacity:1;fill-rule:nonzero;stroke:none"
           d="m 387.3925,270.7201 c 0,4.6966 1.6499,8.5039 3.6851,8.5039 2.0351,0 3.685,-3.8073 3.685,-8.5039 0,-4.6966 -1.6499,-8.504 -3.685,-8.504 -2.0352,0 -3.6851,3.8074 -3.6851,8.504 z" /><path
           id="path9352"
           style="fill:#afabab;fill-opacity:1;fill-rule:nonzero;stroke:none"
           d="m 387.3925,254.3047 c 0,4.6966 1.6499,8.504 3.6851,8.504 2.0351,0 3.685,-3.8074 3.685,-8.504 0,-4.6966 -1.6499,-8.5039 -3.685,-8.5039 -2.0352,0 -3.6851,3.8073 -3.6851,8.5039 z" /><path
           id="path9354"
           style="fill:#afabab;fill-opacity:1;fill-rule:nonzero;stroke:none"
           d="m 387.3925,237.8894 c 0,4.6966 1.6499,8.5039 3.6851,8.5039 2.0351,0 3.685,-3.8073 3.685,-8.5039 0,-4.6966 -1.6499,-8.504 -3.685,-8.504 -2.0352,0 -3.6851,3.8074 -3.6851,8.504 z" /><path
           id="path9356"
           style="fill:#afabab;fill-opacity:1;fill-rule:nonzero;stroke:none"
           d="m 387.3925,221.474 c 0,4.6966 1.6499,8.504 3.6851,8.504 2.0351,0 3.685,-3.8074 3.685,-8.504 0,-4.6966 -1.6499,-8.5039 -3.685,-8.5039 -2.0352,0 -3.6851,3.8073 -3.6851,8.5039 z" /><path
           id="path9358"
           style="fill:#afabab;fill-opacity:1;fill-rule:nonzero;stroke:none"
           d="m 387.3925,206.476 c 0,3.9138 1.6499,7.0866 3.6851,7.0866 2.0351,0 3.685,-3.1728 3.685,-7.0866 0,-3.9138 -1.6499,-7.0866 -3.685,-7.0866 -2.0352,0 -3.6851,3.1728 -3.6851,7.0866 z" /><path
           id="path9360"
           style="fill:#afabab;fill-opacity:1;fill-rule:nonzero;stroke:none"
           d="m 387.3925,192.8953 c 0,3.9138 1.6499,7.0866 3.6851,7.0866 2.0351,0 3.685,-3.1728 3.685,-7.0866 0,-3.9138 -1.6499,-7.0866 -3.685,-7.0866 -2.0352,0 -3.6851,3.1728 -3.6851,7.0866 z" /><path
           id="path9362"
           style="fill:#afabab;fill-opacity:1;fill-rule:nonzero;stroke:none"
           d="m 387.3925,177.8973 c 0,4.6966 1.6499,8.5039 3.6851,8.5039 2.0351,0 3.685,-3.8073 3.685,-8.5039 0,-4.6966 -1.6499,-8.504 -3.685,-8.504 -2.0352,0 -3.6851,3.8074 -3.6851,8.504 z" /><path
           id="path9364"
           style="fill:#afabab;fill-opacity:1;fill-rule:nonzero;stroke:none"
           d="m 387.3925,161.4819 c 0,4.6966 1.6499,8.5039 3.6851,8.5039 2.0351,0 3.685,-3.8073 3.685,-8.5039 0,-4.6966 -1.6499,-8.5039 -3.685,-8.5039 -2.0352,0 -3.6851,3.8073 -3.6851,8.5039 z" /><path
           id="path9366"
           style="fill:#afabab;fill-opacity:1;fill-rule:nonzero;stroke:none"
           d="m 387.3925,146.4839 c 0,3.9138 1.6499,7.0866 3.6851,7.0866 2.0351,0 3.685,-3.1728 3.685,-7.0866 0,-3.9139 -1.6499,-7.0867 -3.685,-7.0867 -2.0352,0 -3.6851,3.1728 -3.6851,7.0867 z" /><path
           id="path9368"
           style="fill:#548235;fill-opacity:1;fill-rule:nonzero;stroke:none"
           d="m 388.2429,132.9032 c 0,3.9138 1.2691,7.0866 2.8347,7.0866 1.5655,0 2.8346,-3.1728 2.8346,-7.0866 0,-3.9139 -1.2691,-7.0867 -2.8346,-7.0867 -1.5656,0 -2.8347,3.1728 -2.8347,7.0867 z" /><path
           id="path9370"
           style="fill:#548235;fill-opacity:1;fill-rule:nonzero;stroke:none"
           d="m 388.2429,119.3224 c 0,3.9139 1.2691,7.0867 2.8347,7.0867 1.5655,0 2.8346,-3.1728 2.8346,-7.0867 0,-3.9138 -1.2691,-7.0866 -2.8346,-7.0866 -1.5656,0 -2.8347,3.1728 -2.8347,7.0866 z" /><path
           id="path9372"
           style="fill:#548235;fill-opacity:1;fill-rule:nonzero;stroke:none"
           d="m 388.2429,107.1593 c 0,3.1311 1.2691,5.6693 2.8347,5.6693 1.5655,0 2.8346,-2.5382 2.8346,-5.6693 0,-3.1311 -1.2691,-5.6693 -2.8346,-5.6693 -1.5656,0 -2.8347,2.5382 -2.8347,5.6693 z" /><g
           transform="matrix(0.24,0,0,0.24,425.8559,-404.16)"
           id="g9374"><text
             id="text9378"
             style="font-variant:normal;font-weight:bold;font-size:33.33332825px;font-family:Calibri;-inkscape-font-specification:Calibri-Bold;writing-mode:lr-tb;fill:#000000;fill-opacity:1;fill-rule:nonzero;stroke:none"
             transform="matrix(1,0,0,-1,0,2250)"><tspan
               id="tspan9376"
               y="0"
               x="0">S</tspan></text>
</g><g
           transform="matrix(0.24,0,0,0.24,429.6059,-404.16)"
           id="g9380"><text
             id="text9384"
             style="font-variant:normal;font-weight:bold;font-size:33.33332825px;font-family:Calibri;-inkscape-font-specification:Calibri-Bold;writing-mode:lr-tb;fill:#000000;fill-opacity:1;fill-rule:nonzero;stroke:none"
             transform="matrix(1,0,0,-1,0,2250)"><tspan
               id="tspan9382"
               y="0"
               x="0">2</tspan></text>
</g><g
           transform="matrix(0.24,0,0,0.24,425.8559,-418.56)"
           id="g9386"><text
             id="text9390"
             style="font-variant:normal;font-weight:bold;font-size:33.33332825px;font-family:Calibri;-inkscape-font-specification:Calibri-Bold;writing-mode:lr-tb;fill:#000000;fill-opacity:1;fill-rule:nonzero;stroke:none"
             transform="matrix(1,0,0,-1,0,2250)"><tspan
               id="tspan9388"
               y="0"
               x="0">S</tspan></text>
</g><g
           transform="matrix(0.24,0,0,0.24,429.6059,-418.56)"
           id="g9392"><text
             id="text9396"
             style="font-variant:normal;font-weight:bold;font-size:33.33332825px;font-family:Calibri;-inkscape-font-specification:Calibri-Bold;writing-mode:lr-tb;fill:#000000;fill-opacity:1;fill-rule:nonzero;stroke:none"
             transform="matrix(1,0,0,-1,0,2250)"><tspan
               id="tspan9394"
               y="0"
               x="0">3</tspan></text>
</g><g
           transform="matrix(0.24,0,0,0.24,425.8559,-435.12)"
           id="g9398"><text
             id="text9402"
             style="font-variant:normal;font-weight:bold;font-size:33.33332825px;font-family:Calibri;-inkscape-font-specification:Calibri-Bold;writing-mode:lr-tb;fill:#000000;fill-opacity:1;fill-rule:nonzero;stroke:none"
             transform="matrix(1,0,0,-1,0,2250)"><tspan
               id="tspan9400"
               y="0"
               x="0">S</tspan></text>
</g><g
           transform="matrix(0.24,0,0,0.24,429.6059,-435.12)"
           id="g9404"><text
             id="text9408"
             style="font-variant:normal;font-weight:bold;font-size:33.33332825px;font-family:Calibri;-inkscape-font-specification:Calibri-Bold;writing-mode:lr-tb;fill:#000000;fill-opacity:1;fill-rule:nonzero;stroke:none"
             transform="matrix(1,0,0,-1,0,2250)"><tspan
               id="tspan9406"
               y="0"
               x="0">4</tspan></text>
</g><path
           id="path9410"
           style="fill:#bfbfbf;fill-opacity:1;fill-rule:nonzero;stroke:none"
           d="m 412.3768,466.5168 h 6.2791 V 94.79595 h -6.2791 z" /><g
           transform="matrix(7.874016e-5,0,0,-7.874016e-5,412.3768,466.5168)"
           id="g9412"><path
             id="path9414"
             style="fill:none;stroke:#a6a6a6;stroke-width:9525;stroke-linecap:butt;stroke-linejoin:miter;stroke-miterlimit:8;stroke-dasharray:none;stroke-opacity:1"
             d="M 0,0 H 79744 V 4720855 H 0 Z" /></g><path
           id="path9416"
           style="fill:#548235;fill-opacity:1;fill-rule:nonzero;stroke:none"
           d="m 412.3768,144.4415 h 6.2791 v -42.5197 h -6.2791 z" /><g
           transform="matrix(7.874016e-5,0,0,-7.874016e-5,412.3768,144.4415)"
           id="g9418"><path
             id="path9420"
             style="fill:none;stroke:#a6a6a6;stroke-width:9525;stroke-linecap:butt;stroke-linejoin:miter;stroke-miterlimit:8;stroke-dasharray:none;stroke-opacity:1"
             d="M 0,0 H 79744 V 540000 H 0 Z" /></g><path
           id="path9422"
           style="fill:#afabab;fill-opacity:1;fill-rule:nonzero;stroke:none"
           d="m 166.9405,447.5402 c 0,4.6965 1.6498,8.5039 3.685,8.5039 2.0352,0 3.6851,-3.8074 3.6851,-8.5039 0,-4.6966 -1.6499,-8.504 -3.6851,-8.504 -2.0352,0 -3.685,3.8074 -3.685,8.504 z" /><path
           id="path9424"
           style="fill:#afabab;fill-opacity:1;fill-rule:nonzero;stroke:none"
           d="m 166.9405,431.1248 c 0,4.6966 1.6498,8.5039 3.685,8.5039 2.0352,0 3.6851,-3.8073 3.6851,-8.5039 0,-4.6966 -1.6499,-8.5039 -3.6851,-8.5039 -2.0352,0 -3.685,3.8073 -3.685,8.5039 z" /><path
           id="path9426"
           style="fill:#afabab;fill-opacity:1;fill-rule:nonzero;stroke:none"
           d="m 166.9405,414.7094 c 0,4.6966 1.6498,8.504 3.685,8.504 2.0352,0 3.6851,-3.8074 3.6851,-8.504 0,-4.6965 -1.6499,-8.5039 -3.6851,-8.5039 -2.0352,0 -3.685,3.8074 -3.685,8.5039 z" /><path
           id="path9428"
           style="fill:#a6a6a6;fill-opacity:1;fill-rule:nonzero;stroke:none"
           d="m 166.9405,400.4201 c 0,3.5224 1.6498,6.3779 3.685,6.3779 2.0352,0 3.6851,-2.8555 3.6851,-6.3779 0,-3.5225 -1.6499,-6.378 -3.6851,-6.378 -2.0352,0 -3.685,2.8555 -3.685,6.378 z" /><path
           id="path9430"
           style="fill:#a6a6a6;fill-opacity:1;fill-rule:nonzero;stroke:none"
           d="m 166.9405,388.2567 c 0,3.5224 1.6498,6.378 3.685,6.378 2.0352,0 3.6851,-2.8556 3.6851,-6.378 0,-3.5224 -1.6499,-6.378 -3.6851,-6.378 -2.0352,0 -3.685,2.8556 -3.685,6.378 z" /><path
           id="path9432"
           style="fill:#a6a6a6;fill-opacity:1;fill-rule:nonzero;stroke:none"
           d="m 166.9405,376.0933 c 0,3.5225 1.6498,6.378 3.685,6.378 2.0352,0 3.6851,-2.8555 3.6851,-6.378 0,-3.5224 -1.6499,-6.3779 -3.6851,-6.3779 -2.0352,0 -3.685,2.8555 -3.685,6.3779 z" /><path
           id="path9434"
           style="fill:#a6a6a6;fill-opacity:1;fill-rule:nonzero;stroke:none"
           d="m 166.9405,363.9299 c 0,3.5225 1.6498,6.378 3.685,6.378 2.0352,0 3.6851,-2.8555 3.6851,-6.378 0,-3.5224 -1.6499,-6.3779 -3.6851,-6.3779 -2.0352,0 -3.685,2.8555 -3.685,6.3779 z" /><path
           id="path9436"
           style="fill:#a6a6a6;fill-opacity:1;fill-rule:nonzero;stroke:none"
           d="m 166.9405,351.7665 c 0,3.5225 1.6498,6.378 3.685,6.378 2.0352,0 3.6851,-2.8555 3.6851,-6.378 0,-3.5224 -1.6499,-6.3779 -3.6851,-6.3779 -2.0352,0 -3.685,2.8555 -3.685,6.3779 z" /><path
           id="path9438"
           style="fill:#a6a6a6;fill-opacity:1;fill-rule:nonzero;stroke:none"
           d="m 166.9405,339.6032 c 0,3.5224 1.6498,6.3779 3.685,6.3779 2.0352,0 3.6851,-2.8555 3.6851,-6.3779 0,-3.5225 -1.6499,-6.378 -3.6851,-6.378 -2.0352,0 -3.685,2.8555 -3.685,6.378 z" /><path
           id="path9440"
           style="fill:#a6a6a6;fill-opacity:1;fill-rule:nonzero;stroke:none"
           d="m 166.9405,325.3138 c 0,4.6966 1.6498,8.5039 3.685,8.5039 2.0352,0 3.6851,-3.8073 3.6851,-8.5039 0,-4.6966 -1.6499,-8.5039 -3.6851,-8.5039 -2.0352,0 -3.685,3.8073 -3.685,8.5039 z" /><path
           id="path9442"
           style="fill:#a6a6a6;fill-opacity:1;fill-rule:nonzero;stroke:none"
           d="m 166.9405,307.4811 c 0,5.4794 1.6498,9.9213 3.685,9.9213 2.0352,0 3.6851,-4.4419 3.6851,-9.9213 0,-5.4794 -1.6499,-9.9213 -3.6851,-9.9213 -2.0352,0 -3.685,4.4419 -3.685,9.9213 z" /><path
           id="path9444"
           style="fill:#a6a6a6;fill-opacity:1;fill-rule:nonzero;stroke:none"
           d="m 166.9405,288.2311 c 0,5.4794 1.6498,9.9213 3.685,9.9213 2.0352,0 3.6851,-4.4419 3.6851,-9.9213 0,-5.4794 -1.6499,-9.9212 -3.6851,-9.9212 -2.0352,0 -3.685,4.4418 -3.685,9.9212 z" /><path
           id="path9446"
           style="fill:#a6a6a6;fill-opacity:1;fill-rule:nonzero;stroke:none"
           d="m 166.9405,270.3984 c 0,4.6966 1.6498,8.504 3.685,8.504 2.0352,0 3.6851,-3.8074 3.6851,-8.504 0,-4.6966 -1.6499,-8.5039 -3.6851,-8.5039 -2.0352,0 -3.685,3.8073 -3.685,8.5039 z" /><path
           id="path9448"
           style="fill:#a6a6a6;fill-opacity:1;fill-rule:nonzero;stroke:none"
           d="m 166.9405,253.9831 c 0,4.6966 1.6498,8.5039 3.685,8.5039 2.0352,0 3.6851,-3.8073 3.6851,-8.5039 0,-4.6966 -1.6499,-8.5039 -3.6851,-8.5039 -2.0352,0 -3.685,3.8073 -3.685,8.5039 z" /><path
           id="path9450"
           style="fill:#a6a6a6;fill-opacity:1;fill-rule:nonzero;stroke:none"
           d="m 166.9405,237.5677 c 0,4.6966 1.6498,8.504 3.685,8.504 2.0352,0 3.6851,-3.8074 3.6851,-8.504 0,-4.6966 -1.6499,-8.5039 -3.6851,-8.5039 -2.0352,0 -3.685,3.8073 -3.685,8.5039 z" /><path
           id="path9452"
           style="fill:#a6a6a6;fill-opacity:1;fill-rule:nonzero;stroke:none"
           d="m 166.9405,221.1524 c 0,4.6966 1.6498,8.5039 3.685,8.5039 2.0352,0 3.6851,-3.8073 3.6851,-8.5039 0,-4.6966 -1.6499,-8.504 -3.6851,-8.504 -2.0352,0 -3.685,3.8074 -3.685,8.504 z" /><path
           id="path9454"
           style="fill:#a6a6a6;fill-opacity:1;fill-rule:nonzero;stroke:none"
           d="m 166.9405,206.1543 c 0,3.9139 1.6498,7.0866 3.685,7.0866 2.0352,0 3.6851,-3.1727 3.6851,-7.0866 0,-3.9138 -1.6499,-7.0866 -3.6851,-7.0866 -2.0352,0 -3.685,3.1728 -3.685,7.0866 z" /><path
           id="path9456"
           style="fill:#a6a6a6;fill-opacity:1;fill-rule:nonzero;stroke:none"
           d="m 166.9405,192.5736 c 0,3.9138 1.6498,7.0866 3.685,7.0866 2.0352,0 3.6851,-3.1728 3.6851,-7.0866 0,-3.9138 -1.6499,-7.0866 -3.6851,-7.0866 -2.0352,0 -3.685,3.1728 -3.685,7.0866 z" /><path
           id="path9458"
           style="fill:#afabab;fill-opacity:1;fill-rule:nonzero;stroke:none"
           d="m 166.9405,177.5756 c 0,4.6966 1.6498,8.5039 3.685,8.5039 2.0352,0 3.6851,-3.8073 3.6851,-8.5039 0,-4.6966 -1.6499,-8.5039 -3.6851,-8.5039 -2.0352,0 -3.685,3.8073 -3.685,8.5039 z" /><path
           id="path9460"
           style="fill:#afabab;fill-opacity:1;fill-rule:nonzero;stroke:none"
           d="m 166.9405,161.1603 c 0,4.6965 1.6498,8.5039 3.685,8.5039 2.0352,0 3.6851,-3.8074 3.6851,-8.5039 0,-4.6966 -1.6499,-8.504 -3.6851,-8.504 -2.0352,0 -3.685,3.8074 -3.685,8.504 z" /><path
           id="path9462"
           style="fill:#afabab;fill-opacity:1;fill-rule:nonzero;stroke:none"
           d="m 166.9405,146.1622 c 0,3.9138 1.6498,7.0866 3.685,7.0866 2.0352,0 3.6851,-3.1728 3.6851,-7.0866 0,-3.9138 -1.6499,-7.0866 -3.6851,-7.0866 -2.0352,0 -3.685,3.1728 -3.685,7.0866 z" /><path
           id="path9464"
           style="fill:#afabab;fill-opacity:1;fill-rule:nonzero;stroke:none"
           d="m 167.7909,132.5815 c 0,3.9138 1.2691,7.0866 2.8346,7.0866 1.5655,0 2.8347,-3.1728 2.8347,-7.0866 0,-3.9138 -1.2692,-7.0866 -2.8347,-7.0866 -1.5655,0 -2.8346,3.1728 -2.8346,7.0866 z" /><path
           id="path9466"
           style="fill:#afabab;fill-opacity:1;fill-rule:nonzero;stroke:none"
           d="m 167.7909,119.0008 c 0,3.9138 1.2691,7.0866 2.8346,7.0866 1.5655,0 2.8347,-3.1728 2.8347,-7.0866 0,-3.9138 -1.2692,-7.0866 -2.8347,-7.0866 -1.5655,0 -2.8346,3.1728 -2.8346,7.0866 z" /><path
           id="path9468"
           style="fill:#afabab;fill-opacity:1;fill-rule:nonzero;stroke:none"
           d="m 167.7909,106.8377 c 0,3.131 1.2691,5.6693 2.8346,5.6693 1.5655,0 2.8347,-2.5383 2.8347,-5.6693 0,-3.1311 -1.2692,-5.6693 -2.8347,-5.6693 -1.5655,0 -2.8346,2.5382 -2.8346,5.6693 z" /><path
           id="path9470"
           style="fill:#afabab;fill-opacity:1;fill-rule:nonzero;stroke:none"
           d="m 204.3643,447.8618 c 0,4.6966 1.6499,8.5039 3.6851,8.5039 2.0352,0 3.685,-3.8073 3.685,-8.5039 0,-4.6966 -1.6498,-8.5039 -3.685,-8.5039 -2.0352,0 -3.6851,3.8073 -3.6851,8.5039 z" /><path
           id="path9472"
           style="fill:#afabab;fill-opacity:1;fill-rule:nonzero;stroke:none"
           d="m 204.3643,431.4465 c 0,4.6966 1.6499,8.5039 3.6851,8.5039 2.0352,0 3.685,-3.8073 3.685,-8.5039 0,-4.6966 -1.6498,-8.504 -3.685,-8.504 -2.0352,0 -3.6851,3.8074 -3.6851,8.504 z" /><path
           id="path9474"
           style="fill:#afabab;fill-opacity:1;fill-rule:nonzero;stroke:none"
           d="m 204.3643,415.0311 c 0,4.6966 1.6499,8.5039 3.6851,8.5039 2.0352,0 3.685,-3.8073 3.685,-8.5039 0,-4.6966 -1.6498,-8.5039 -3.685,-8.5039 -2.0352,0 -3.6851,3.8073 -3.6851,8.5039 z" /><path
           id="path9476"
           style="fill:#a6a6a6;fill-opacity:1;fill-rule:nonzero;stroke:none"
           d="m 204.3643,400.7417 c 0,3.5225 1.6499,6.378 3.6851,6.378 2.0352,0 3.685,-2.8555 3.685,-6.378 0,-3.5224 -1.6498,-6.3779 -3.685,-6.3779 -2.0352,0 -3.6851,2.8555 -3.6851,6.3779 z" /><path
           id="path9478"
           style="fill:#a6a6a6;fill-opacity:1;fill-rule:nonzero;stroke:none"
           d="m 204.3643,388.5783 c 0,3.5225 1.6499,6.378 3.6851,6.378 2.0352,0 3.685,-2.8555 3.685,-6.378 0,-3.5224 -1.6498,-6.3779 -3.685,-6.3779 -2.0352,0 -3.6851,2.8555 -3.6851,6.3779 z" /><path
           id="path9480"
           style="fill:#a6a6a6;fill-opacity:1;fill-rule:nonzero;stroke:none"
           d="m 204.3643,376.415 c 0,3.5224 1.6499,6.3779 3.6851,6.3779 2.0352,0 3.685,-2.8555 3.685,-6.3779 0,-3.5225 -1.6498,-6.378 -3.685,-6.378 -2.0352,0 -3.6851,2.8555 -3.6851,6.378 z" /><path
           id="path9482"
           style="fill:#a6a6a6;fill-opacity:1;fill-rule:nonzero;stroke:none"
           d="m 204.3643,364.2516 c 0,3.5224 1.6499,6.3779 3.6851,6.3779 2.0352,0 3.685,-2.8555 3.685,-6.3779 0,-3.5225 -1.6498,-6.378 -3.685,-6.378 -2.0352,0 -3.6851,2.8555 -3.6851,6.378 z" /><path
           id="path9484"
           style="fill:#a6a6a6;fill-opacity:1;fill-rule:nonzero;stroke:none"
           d="m 204.3643,352.0882 c 0,3.5224 1.6499,6.378 3.6851,6.378 2.0352,0 3.685,-2.8556 3.685,-6.378 0,-3.5224 -1.6498,-6.378 -3.685,-6.378 -2.0352,0 -3.6851,2.8556 -3.6851,6.378 z" /><path
           id="path9486"
           style="fill:#a6a6a6;fill-opacity:1;fill-rule:nonzero;stroke:none"
           d="m 204.3643,339.9248 c 0,3.5225 1.6499,6.378 3.6851,6.378 2.0352,0 3.685,-2.8555 3.685,-6.378 0,-3.5224 -1.6498,-6.3779 -3.685,-6.3779 -2.0352,0 -3.6851,2.8555 -3.6851,6.3779 z" /><path
           id="path9488"
           style="fill:#a6a6a6;fill-opacity:1;fill-rule:nonzero;stroke:none"
           d="m 204.3643,325.6354 c 0,4.6966 1.6499,8.504 3.6851,8.504 2.0352,0 3.685,-3.8074 3.685,-8.504 0,-4.6966 -1.6498,-8.5039 -3.685,-8.5039 -2.0352,0 -3.6851,3.8073 -3.6851,8.5039 z" /><path
           id="path9490"
           style="fill:#a6a6a6;fill-opacity:1;fill-rule:nonzero;stroke:none"
           d="m 204.3643,307.8028 c 0,5.4793 1.6499,9.9212 3.6851,9.9212 2.0352,0 3.685,-4.4419 3.685,-9.9212 0,-5.4794 -1.6498,-9.9213 -3.685,-9.9213 -2.0352,0 -3.6851,4.4419 -3.6851,9.9213 z" /><path
           id="path9492"
           style="fill:#a6a6a6;fill-opacity:1;fill-rule:nonzero;stroke:none"
           d="m 204.3643,288.5528 c 0,5.4793 1.6499,9.9212 3.6851,9.9212 2.0352,0 3.685,-4.4419 3.685,-9.9212 0,-5.4794 -1.6498,-9.9213 -3.685,-9.9213 -2.0352,0 -3.6851,4.4419 -3.6851,9.9213 z" /><path
           id="path9494"
           style="fill:#a6a6a6;fill-opacity:1;fill-rule:nonzero;stroke:none"
           d="m 204.3643,270.7201 c 0,4.6966 1.6499,8.5039 3.6851,8.5039 2.0352,0 3.685,-3.8073 3.685,-8.5039 0,-4.6966 -1.6498,-8.504 -3.685,-8.504 -2.0352,0 -3.6851,3.8074 -3.6851,8.504 z" /><path
           id="path9496"
           style="fill:#a6a6a6;fill-opacity:1;fill-rule:nonzero;stroke:none"
           d="m 204.3643,254.3047 c 0,4.6966 1.6499,8.504 3.6851,8.504 2.0352,0 3.685,-3.8074 3.685,-8.504 0,-4.6966 -1.6498,-8.5039 -3.685,-8.5039 -2.0352,0 -3.6851,3.8073 -3.6851,8.5039 z" /><path
           id="path9498"
           style="fill:#a6a6a6;fill-opacity:1;fill-rule:nonzero;stroke:none"
           d="m 204.3643,237.8894 c 0,4.6966 1.6499,8.5039 3.6851,8.5039 2.0352,0 3.685,-3.8073 3.685,-8.5039 0,-4.6966 -1.6498,-8.504 -3.685,-8.504 -2.0352,0 -3.6851,3.8074 -3.6851,8.504 z" /><path
           id="path9500"
           style="fill:#a6a6a6;fill-opacity:1;fill-rule:nonzero;stroke:none"
           d="m 204.3643,221.474 c 0,4.6966 1.6499,8.504 3.6851,8.504 2.0352,0 3.685,-3.8074 3.685,-8.504 0,-4.6966 -1.6498,-8.5039 -3.685,-8.5039 -2.0352,0 -3.6851,3.8073 -3.6851,8.5039 z" /><path
           id="path9502"
           style="fill:#a6a6a6;fill-opacity:1;fill-rule:nonzero;stroke:none"
           d="m 204.3643,206.476 c 0,3.9138 1.6499,7.0866 3.6851,7.0866 2.0352,0 3.685,-3.1728 3.685,-7.0866 0,-3.9138 -1.6498,-7.0866 -3.685,-7.0866 -2.0352,0 -3.6851,3.1728 -3.6851,7.0866 z" /><path
           id="path9504"
           style="fill:#a6a6a6;fill-opacity:1;fill-rule:nonzero;stroke:none"
           d="m 204.3643,192.8953 c 0,3.9138 1.6499,7.0866 3.6851,7.0866 2.0352,0 3.685,-3.1728 3.685,-7.0866 0,-3.9138 -1.6498,-7.0866 -3.685,-7.0866 -2.0352,0 -3.6851,3.1728 -3.6851,7.0866 z" /><path
           id="path9506"
           style="fill:#afabab;fill-opacity:1;fill-rule:nonzero;stroke:none"
           d="m 204.3643,177.8973 c 0,4.6966 1.6499,8.5039 3.6851,8.5039 2.0352,0 3.685,-3.8073 3.685,-8.5039 0,-4.6966 -1.6498,-8.504 -3.685,-8.504 -2.0352,0 -3.6851,3.8074 -3.6851,8.504 z" /><path
           id="path9508"
           style="fill:#afabab;fill-opacity:1;fill-rule:nonzero;stroke:none"
           d="m 204.3643,161.4819 c 0,4.6966 1.6499,8.5039 3.6851,8.5039 2.0352,0 3.685,-3.8073 3.685,-8.5039 0,-4.6966 -1.6498,-8.5039 -3.685,-8.5039 -2.0352,0 -3.6851,3.8073 -3.6851,8.5039 z" /><path
           id="path9510"
           style="fill:#afabab;fill-opacity:1;fill-rule:nonzero;stroke:none"
           d="m 204.3643,146.4839 c 0,3.9138 1.6499,7.0866 3.6851,7.0866 2.0352,0 3.685,-3.1728 3.685,-7.0866 0,-3.9139 -1.6498,-7.0867 -3.685,-7.0867 -2.0352,0 -3.6851,3.1728 -3.6851,7.0867 z" /><path
           id="path9512"
           style="fill:#afabab;fill-opacity:1;fill-rule:nonzero;stroke:none"
           d="m 205.2147,132.9032 c 0,3.9138 1.2691,7.0866 2.8347,7.0866 1.5655,0 2.8346,-3.1728 2.8346,-7.0866 0,-3.9139 -1.2691,-7.0867 -2.8346,-7.0867 -1.5656,0 -2.8347,3.1728 -2.8347,7.0867 z" /><path
           id="path9514"
           style="fill:#afabab;fill-opacity:1;fill-rule:nonzero;stroke:none"
           d="m 205.2147,119.3224 c 0,3.9139 1.2691,7.0867 2.8347,7.0867 1.5655,0 2.8346,-3.1728 2.8346,-7.0867 0,-3.9138 -1.2691,-7.0866 -2.8346,-7.0866 -1.5656,0 -2.8347,3.1728 -2.8347,7.0866 z" /><path
           id="path9516"
           style="fill:#afabab;fill-opacity:1;fill-rule:nonzero;stroke:none"
           d="m 205.2147,107.1593 c 0,3.1311 1.2691,5.6693 2.8347,5.6693 1.5655,0 2.8346,-2.5382 2.8346,-5.6693 0,-3.1311 -1.2691,-5.6693 -2.8346,-5.6693 -1.5656,0 -2.8347,2.5382 -2.8347,5.6693 z" /><path
           id="path9518"
           style="fill:#bfbfbf;fill-opacity:1;fill-rule:nonzero;stroke:none"
           d="m 183.1243,456.3657 h 14.005 V 179.4776 h -14.005 z" /><g
           transform="matrix(7.874016e-5,0,0,-7.874016e-5,183.1243,456.3657)"
           id="g9520"><path
             id="path9522"
             style="fill:none;stroke:#a6a6a6;stroke-width:9525;stroke-linecap:butt;stroke-linejoin:miter;stroke-miterlimit:8;stroke-dasharray:none;stroke-opacity:1"
             d="M 0,0 H 177863 V 3516479 H 0 Z" /></g><path
           id="path9524"
           style="fill:#a6a6a6;fill-opacity:1;fill-rule:nonzero;stroke:none"
           d="m 183.1243,395.5206 h 11.4689 v -209.55 h -11.4689 z" /><g
           transform="matrix(7.874016e-5,0,0,-7.874016e-5,183.1243,395.5206)"
           id="g9526"><path
             id="path9528"
             style="fill:none;stroke:#a6a6a6;stroke-width:9525;stroke-linecap:butt;stroke-linejoin:miter;stroke-miterlimit:8;stroke-dasharray:none;stroke-opacity:1"
             d="M 0,0 H 145655 V 2661285 H 0 Z" /></g></g></g></g></svg>