<?xml version="1.0" encoding="UTF-8" standalone="no"?>
<svg
   xmlns:dc="http://purl.org/dc/elements/1.1/"
   xmlns:cc="http://creativecommons.org/ns#"
   xmlns:rdf="http://www.w3.org/1999/02/22-rdf-syntax-ns#"
   xmlns:svg="http://www.w3.org/2000/svg"
   xmlns="http://www.w3.org/2000/svg"
   viewBox="0 0 1280 720"
   height="720"
   width="1280"
   xml:space="preserve"
   id="svg203"
   version="1.1"><metadata
     id="metadata209"><rdf:RDF><cc:Work
         rdf:about=""><dc:format>image/svg+xml</dc:format><dc:type
           rdf:resource="http://purl.org/dc/dcmitype/StillImage" /><dc:title></dc:title></cc:Work></rdf:RDF></metadata><defs
     id="defs207"><clipPath
       id="clipPath221"
       clipPathUnits="userSpaceOnUse"><path
         id="path219"
         d="M 0,540 H 959.76 V 0 H 0 Z" /></clipPath><clipPath
       id="clipPath227"
       clipPathUnits="userSpaceOnUse"><path
         id="path225"
         d="M 0,0 H 960 V 540 H 0 Z" /></clipPath><clipPath
       id="clipPath237"
       clipPathUnits="userSpaceOnUse"><path
         id="path235"
         d="M 0,0 H 960 V 540 H 0 Z" /></clipPath></defs><g
     transform="matrix(1.3333333,0,0,-1.3333333,0,720)"
     id="g211"><g
       id="g213" /><g
       id="g215"><g
         clip-path="url(#clipPath221)"
         id="g217"><g
           clip-path="url(#clipPath227)"
           id="g223"><path
             id="path229"
             style="fill:#ffffff;fill-opacity:1;fill-rule:nonzero;stroke:none"
             d="M 0,540 H 959.76 V 0 H 0 Z" /></g></g></g><g
       id="g231"><g
         clip-path="url(#clipPath237)"
         id="g233"><path
           id="path239"
           style="fill:#ffffff;fill-opacity:1;fill-rule:nonzero;stroke:none"
           d="M 0,540 H 960 V 0 H 0 Z" /><path
           id="path241"
           style="fill:#bf9000;fill-opacity:1;fill-rule:nonzero;stroke:none"
           d="m 252.76,379.3599 c 0,1.1742 -0.9519,2.126 -2.126,2.126 -1.1741,0 -2.126,-0.9518 -2.126,-2.126 0,-1.1741 0.9519,-2.126 2.126,-2.126 1.1741,0 2.126,0.9519 2.126,2.126 z" /><path
           id="path243"
           style="fill:#bf9000;fill-opacity:1;fill-rule:nonzero;stroke:none"
           d="m 262.6415,382.2943 c 0,1.1742 -0.9518,2.126 -2.126,2.126 -1.1741,0 -2.126,-0.9518 -2.126,-2.126 0,-1.1741 0.9519,-2.1259 2.126,-2.1259 1.1742,0 2.126,0.9518 2.126,2.1259 z" /><path
           id="path245"
           style="fill:#bf9000;fill-opacity:1;fill-rule:nonzero;stroke:none"
           d="m 263.5879,377.9119 c 0,1.1741 -0.9519,2.126 -2.126,2.126 -1.1742,0 -2.126,-0.9519 -2.126,-2.126 0,-1.1742 0.9518,-2.126 2.126,-2.126 1.1741,0 2.126,0.9518 2.126,2.126 z" /><path
           id="path247"
           style="fill:#bf9000;fill-opacity:1;fill-rule:nonzero;stroke:none"
           d="m 254.886,375.7859 c 0,1.1742 -0.9519,2.126 -2.126,2.126 -1.1742,0 -2.126,-0.9518 -2.126,-2.126 0,-1.1741 0.9518,-2.126 2.126,-2.126 1.1741,0 2.126,0.9519 2.126,2.126 z" /><path
           id="path249"
           style="fill:#bf9000;fill-opacity:1;fill-rule:nonzero;stroke:none"
           d="m 260.0843,374.6952 c 0,1.1741 -0.9518,2.126 -2.126,2.126 -1.1741,0 -2.1259,-0.9519 -2.1259,-2.126 0,-1.1741 0.9518,-2.126 2.1259,-2.126 1.1742,0 2.126,0.9519 2.126,2.126 z" /><path
           id="path251"
           style="fill:#bf9000;fill-opacity:1;fill-rule:nonzero;stroke:none"
           d="m 252.1801,383.8431 c 0,1.1741 -0.9519,2.126 -2.126,2.126 -1.1742,0 -2.126,-0.9519 -2.126,-2.126 0,-1.1742 0.9518,-2.126 2.126,-2.126 1.1741,0 2.126,0.9518 2.126,2.126 z" /><path
           id="path253"
           style="fill:#bf9000;fill-opacity:1;fill-rule:nonzero;stroke:none"
           d="m 249.8856,375.719 c 0,1.1741 -0.9519,2.126 -2.126,2.126 -1.1742,0 -2.126,-0.9519 -2.126,-2.126 0,-1.1742 0.9518,-2.126 2.126,-2.126 1.1741,0 2.126,0.9518 2.126,2.126 z" /><path
           id="path255"
           style="fill:#bf9000;fill-opacity:1;fill-rule:nonzero;stroke:none"
           d="m 258.3895,378.5044 c 0,1.1742 -0.9518,2.126 -2.126,2.126 -1.1741,0 -2.1259,-0.9518 -2.1259,-2.126 0,-1.1741 0.9518,-2.126 2.1259,-2.126 1.1742,0 2.126,0.9519 2.126,2.126 z" /><path
           id="path257"
           style="fill:#bf9000;fill-opacity:1;fill-rule:nonzero;stroke:none"
           d="m 257.251,382.6482 c 0,1.1741 -0.9518,2.126 -2.126,2.126 -1.1741,0 -2.1259,-0.9519 -2.1259,-2.126 0,-1.1742 0.9518,-2.126 2.1259,-2.126 1.1742,0 2.126,0.9518 2.126,2.126 z" /><path
           id="path259"
           style="fill:#bf9000;fill-opacity:1;fill-rule:nonzero;stroke:none"
           d="m 257.4852,371.6004 c 0,1.1741 -0.9518,2.126 -2.126,2.126 -1.1741,0 -2.126,-0.9519 -2.126,-2.126 0,-1.1742 0.9519,-2.126 2.126,-2.126 1.1742,0 2.126,0.9518 2.126,2.126 z" /><path
           id="path261"
           style="fill:#bf9000;fill-opacity:1;fill-rule:nonzero;stroke:none"
           d="m 247.9281,380.5222 c 0,1.1742 -0.9518,2.126 -2.126,2.126 -1.1741,0 -2.126,-0.9518 -2.126,-2.126 0,-1.1741 0.9519,-2.126 2.126,-2.126 1.1742,0 2.126,0.9519 2.126,2.126 z" /><path
           id="path263"
           style="fill:#bf9000;fill-opacity:1;fill-rule:nonzero;stroke:none"
           d="m 253.0025,371.6004 c 0,1.1741 -0.9518,2.126 -2.126,2.126 -1.1741,0 -2.126,-0.9519 -2.126,-2.126 0,-1.1742 0.9519,-2.126 2.126,-2.126 1.1742,0 2.126,0.9518 2.126,2.126 z" /></g></g></g></svg>