<?xml version="1.0" encoding="UTF-8" standalone="no"?>
<svg
   xmlns:dc="http://purl.org/dc/elements/1.1/"
   xmlns:cc="http://creativecommons.org/ns#"
   xmlns:rdf="http://www.w3.org/1999/02/22-rdf-syntax-ns#"
   xmlns:svg="http://www.w3.org/2000/svg"
   xmlns="http://www.w3.org/2000/svg"
   viewBox="0 0 1280 720"
   height="720"
   width="1280"
   xml:space="preserve"
   id="svg834"
   version="1.1"><metadata
     id="metadata840"><rdf:RDF><cc:Work
         rdf:about=""><dc:format>image/svg+xml</dc:format><dc:type
           rdf:resource="http://purl.org/dc/dcmitype/StillImage" /><dc:title></dc:title></cc:Work></rdf:RDF></metadata><defs
     id="defs838"><clipPath
       id="clipPath852"
       clipPathUnits="userSpaceOnUse"><path
         id="path850"
         d="M 0,540 H 959.76 V 0 H 0 Z" /></clipPath><clipPath
       id="clipPath858"
       clipPathUnits="userSpaceOnUse"><path
         id="path856"
         d="M 0,0 H 960 V 540 H 0 Z" /></clipPath><clipPath
       id="clipPath868"
       clipPathUnits="userSpaceOnUse"><path
         id="path866"
         d="M 0,0 H 960 V 540 H 0 Z" /></clipPath><clipPath
       id="clipPath904"
       clipPathUnits="userSpaceOnUse"><path
         style="clip-rule:evenodd"
         id="path902"
         d="m 346.6748,370.8232 c -1.0127,11.7454 -9.9185,38.973 -8.239,50.7494 1.6796,11.7763 11.4708,20.6531 18.3163,19.9087 6.8455,-0.7444 11.7923,-35.7757 11.1552,-48.2611 -0.6371,-12.4853 -1.5432,-12.3399 -2.2383,-25.3997 -4.9037,1.7269 -9.1094,1.7218 -18.9942,3.0027 z" /></clipPath><clipPath
       id="clipPath910"
       clipPathUnits="userSpaceOnUse"><path
         id="path908"
         d="M 0,0 H 960 V 540 H 0 Z" /></clipPath><linearGradient
       id="linearGradient918"
       gradientTransform="matrix(7.874016e-5,0,0,-7.874016e-5,338.2256,441.5249)"
       gradientUnits="userSpaceOnUse"
       y2="468023.19"
       x2="0.39257109"
       y1="468023.19"
       x1="-377658.5"><stop
         id="stop914"
         offset="0"
         style="stop-opacity:1;stop-color:#6e6e6e" /><stop
         id="stop916"
         offset="1"
         style="stop-opacity:1;stop-color:#c0c0c0" /></linearGradient><linearGradient
       id="linearGradient928"
       gradientTransform="matrix(7.874016e-5,0,0,-7.874016e-5,338.2256,441.5249)"
       gradientUnits="userSpaceOnUse"
       y2="468023.19"
       x2="377659.31"
       y1="468023.19"
       x1="0.39257109"><stop
         id="stop924"
         offset="0"
         style="stop-opacity:1;stop-color:#c0c0c0" /><stop
         id="stop926"
         offset="1"
         style="stop-opacity:1;stop-color:#6e6e6e" /></linearGradient><linearGradient
       id="linearGradient938"
       gradientTransform="matrix(7.874016e-5,0,0,-7.874016e-5,338.2256,441.5249)"
       gradientUnits="userSpaceOnUse"
       y2="468023.19"
       x2="755318.19"
       y1="468023.19"
       x1="377659.31"><stop
         id="stop934"
         offset="0"
         style="stop-opacity:1;stop-color:#6e6e6e" /><stop
         id="stop936"
         offset="1"
         style="stop-opacity:1;stop-color:#c0c0c0" /></linearGradient><clipPath
       id="clipPath948"
       clipPathUnits="userSpaceOnUse"><path
         style="clip-rule:evenodd"
         id="path946"
         d="m 366.5626,199.9791 c -0.9058,11.7454 -6.8819,41.6842 -9.0054,49.5942 5.4807,1.4609 8.6199,1.7412 13.5907,0.1762 3.6585,-10.6111 7.4883,-31.7722 7.2053,-49.9817 z" /></clipPath><clipPath
       id="clipPath954"
       clipPathUnits="userSpaceOnUse"><path
         id="path952"
         d="M 0,0 H 960 V 540 H 0 Z" /></clipPath><linearGradient
       id="linearGradient962"
       gradientTransform="matrix(7.874016e-5,0,0,-7.874016e-5,357.5572,250.8025)"
       gradientUnits="userSpaceOnUse"
       y2="324070.5"
       x2="264297.81"
       y1="324070.5"
       x1="0"><stop
         id="stop958"
         offset="0"
         style="stop-opacity:1;stop-color:#c0c0c0" /><stop
         id="stop960"
         offset="1"
         style="stop-opacity:1;stop-color:#6e6e6e" /></linearGradient><linearGradient
       id="linearGradient972"
       gradientTransform="matrix(7.874016e-5,0,0,-7.874016e-5,357.5572,250.8025)"
       gradientUnits="userSpaceOnUse"
       y2="324070.5"
       x2="528595.62"
       y1="324070.5"
       x1="264297.81"><stop
         id="stop968"
         offset="0"
         style="stop-opacity:1;stop-color:#6e6e6e" /><stop
         id="stop970"
         offset="1"
         style="stop-opacity:1;stop-color:#c0c0c0" /></linearGradient><clipPath
       id="clipPath982"
       clipPathUnits="userSpaceOnUse"><path
         style="clip-rule:evenodd"
         id="path980"
         d="m 356.1572,251.6105 c -3.6972,11.7453 -5.3418,18.9675 -6.8877,28.5139 5.4807,1.4609 9.7749,1.5487 14.2645,1.2351 1.8297,-10.515 1.4241,-11.6546 5.7616,-28.2278 z" /></clipPath><clipPath
       id="clipPath988"
       clipPathUnits="userSpaceOnUse"><path
         id="path986"
         d="M 0,0 H 960 V 540 H 0 Z" /></clipPath><linearGradient
       id="linearGradient996"
       gradientTransform="matrix(7.874016e-5,0,0,-7.874016e-5,349.2695,281.5074)"
       gradientUnits="userSpaceOnUse"
       y2="189846"
       x2="254332"
       y1="189846"
       x1="0"><stop
         id="stop992"
         offset="0"
         style="stop-opacity:1;stop-color:#c0c0c0" /><stop
         id="stop994"
         offset="1"
         style="stop-opacity:1;stop-color:#6e6e6e" /></linearGradient><clipPath
       id="clipPath1006"
       clipPathUnits="userSpaceOnUse"><path
         style="clip-rule:evenodd"
         id="path1004"
         d="m 348.7134,282.8551 c -1.7721,6.2007 -2.0692,12.1005 -3.6152,18.6268 5.4807,0.9987 10.8339,0.5774 15.3234,0.363 0.6746,-6.4183 0.0766,-7.2937 2.6815,-16.9873 -5.9516,-0.09 -9.4007,-0.7575 -14.3897,-2.0025 z" /></clipPath><clipPath
       id="clipPath1012"
       clipPathUnits="userSpaceOnUse"><path
         id="path1010"
         d="M 0,0 H 960 V 540 H 0 Z" /></clipPath><linearGradient
       id="linearGradient1020"
       gradientTransform="matrix(7.874016e-5,0,0,-7.874016e-5,345.0982,302.1185)"
       gradientUnits="userSpaceOnUse"
       y2="122322.2"
       x2="228662"
       y1="122322.2"
       x1="0"><stop
         id="stop1016"
         offset="0"
         style="stop-opacity:1;stop-color:#c0c0c0" /><stop
         id="stop1018"
         offset="1"
         style="stop-opacity:1;stop-color:#6e6e6e" /></linearGradient><clipPath
       id="clipPath1030"
       clipPathUnits="userSpaceOnUse"><path
         style="clip-rule:evenodd"
         id="path1028"
         d="m 345.0065,305.3842 c -1.7721,6.2007 -0.7041,14.148 -0.8852,21.3567 5.4807,0.9987 12.3125,-0.9013 16.8021,-1.1157 0.6746,-6.4183 -1.8571,-12.7533 -0.1622,-21.992 -5.9516,-0.09 -10.7656,2.0861 -15.7547,1.751 z" /></clipPath><clipPath
       id="clipPath1036"
       clipPathUnits="userSpaceOnUse"><path
         id="path1034"
         d="M 0,0 H 960 V 540 H 0 Z" /></clipPath><linearGradient
       id="linearGradient1044"
       gradientTransform="matrix(7.874016e-5,0,0,-7.874016e-5,343.9654,327.0291)"
       gradientUnits="userSpaceOnUse"
       y2="148581.41"
       x2="-0.42416981"
       y1="148581.41"
       x1="-216855.5"><stop
         id="stop1040"
         offset="0"
         style="stop-opacity:1;stop-color:#6e6e6e" /><stop
         id="stop1042"
         offset="1"
         style="stop-opacity:1;stop-color:#c0c0c0" /></linearGradient><linearGradient
       id="linearGradient1054"
       gradientTransform="matrix(7.874016e-5,0,0,-7.874016e-5,343.9654,327.0291)"
       gradientUnits="userSpaceOnUse"
       y2="148581.41"
       x2="216854.7"
       y1="148581.41"
       x1="-0.42416981"><stop
         id="stop1050"
         offset="0"
         style="stop-opacity:1;stop-color:#c0c0c0" /><stop
         id="stop1052"
         offset="1"
         style="stop-opacity:1;stop-color:#6e6e6e" /></linearGradient><linearGradient
       id="linearGradient1064"
       gradientTransform="matrix(7.874016e-5,0,0,-7.874016e-5,343.9654,327.0291)"
       gradientUnits="userSpaceOnUse"
       y2="148581.41"
       x2="433709.69"
       y1="148581.41"
       x1="216854.7"><stop
         id="stop1060"
         offset="0"
         style="stop-opacity:1;stop-color:#6e6e6e" /><stop
         id="stop1062"
         offset="1"
         style="stop-opacity:1;stop-color:#c0c0c0" /></linearGradient><clipPath
       id="clipPath1074"
       clipPathUnits="userSpaceOnUse"><path
         style="clip-rule:evenodd"
         id="path1072"
         d="m 497.911,370.8232 c 1.0127,11.7454 9.9185,38.973 8.239,50.7494 -1.6796,11.7763 -11.4708,20.6531 -18.3163,19.9087 -6.8455,-0.7444 -11.7923,-35.7757 -11.1552,-48.2611 0.6371,-12.4853 1.5432,-12.3399 2.2383,-25.3997 4.9037,1.7269 9.1094,1.7218 18.9942,3.0027 z" /></clipPath><clipPath
       id="clipPath1080"
       clipPathUnits="userSpaceOnUse"><path
         id="path1078"
         d="M 0,0 H 960 V 540 H 0 Z" /></clipPath><linearGradient
       id="linearGradient1088"
       gradientTransform="matrix(-7.874016e-5,0,0,-7.874016e-5,506.3602,441.5249)"
       gradientUnits="userSpaceOnUse"
       y2="468023.19"
       x2="0.39257109"
       y1="468023.19"
       x1="-377658.5"><stop
         id="stop1084"
         offset="0"
         style="stop-opacity:1;stop-color:#6e6e6e" /><stop
         id="stop1086"
         offset="1"
         style="stop-opacity:1;stop-color:#c0c0c0" /></linearGradient><linearGradient
       id="linearGradient1098"
       gradientTransform="matrix(-7.874016e-5,0,0,-7.874016e-5,506.3602,441.5249)"
       gradientUnits="userSpaceOnUse"
       y2="468023.19"
       x2="377659.31"
       y1="468023.19"
       x1="0.39257109"><stop
         id="stop1094"
         offset="0"
         style="stop-opacity:1;stop-color:#c0c0c0" /><stop
         id="stop1096"
         offset="1"
         style="stop-opacity:1;stop-color:#6e6e6e" /></linearGradient><linearGradient
       id="linearGradient1108"
       gradientTransform="matrix(-7.874016e-5,0,0,-7.874016e-5,506.3602,441.5249)"
       gradientUnits="userSpaceOnUse"
       y2="468023.19"
       x2="755318.19"
       y1="468023.19"
       x1="377659.31"><stop
         id="stop1104"
         offset="0"
         style="stop-opacity:1;stop-color:#6e6e6e" /><stop
         id="stop1106"
         offset="1"
         style="stop-opacity:1;stop-color:#c0c0c0" /></linearGradient><clipPath
       id="clipPath1118"
       clipPathUnits="userSpaceOnUse"><path
         style="clip-rule:evenodd"
         id="path1116"
         d="m 478.0233,199.9791 c 0.9057,11.7454 6.8818,41.6842 9.0054,49.5942 -5.4808,1.4609 -8.6199,1.7412 -13.5908,0.1762 -3.6585,-10.6111 -7.4883,-31.7722 -7.2053,-49.9817 z" /></clipPath><clipPath
       id="clipPath1124"
       clipPathUnits="userSpaceOnUse"><path
         id="path1122"
         d="M 0,0 H 960 V 540 H 0 Z" /></clipPath><linearGradient
       id="linearGradient1132"
       gradientTransform="matrix(-7.874016e-5,0,0,-7.874016e-5,487.0287,250.8025)"
       gradientUnits="userSpaceOnUse"
       y2="324070.5"
       x2="264297.81"
       y1="324070.5"
       x1="0"><stop
         id="stop1128"
         offset="0"
         style="stop-opacity:1;stop-color:#c0c0c0" /><stop
         id="stop1130"
         offset="1"
         style="stop-opacity:1;stop-color:#6e6e6e" /></linearGradient><linearGradient
       id="linearGradient1142"
       gradientTransform="matrix(-7.874016e-5,0,0,-7.874016e-5,487.0287,250.8025)"
       gradientUnits="userSpaceOnUse"
       y2="324070.5"
       x2="528595.62"
       y1="324070.5"
       x1="264297.81"><stop
         id="stop1138"
         offset="0"
         style="stop-opacity:1;stop-color:#6e6e6e" /><stop
         id="stop1140"
         offset="1"
         style="stop-opacity:1;stop-color:#c0c0c0" /></linearGradient><clipPath
       id="clipPath1152"
       clipPathUnits="userSpaceOnUse"><path
         style="clip-rule:evenodd"
         id="path1150"
         d="m 488.4286,251.6105 c 3.6972,11.7453 5.3418,18.9675 6.8878,28.5139 -5.4808,1.4609 -9.775,1.5487 -14.2645,1.2351 -1.8298,-10.515 -1.4242,-11.6546 -5.7616,-28.2278 z" /></clipPath><clipPath
       id="clipPath1158"
       clipPathUnits="userSpaceOnUse"><path
         id="path1156"
         d="M 0,0 H 960 V 540 H 0 Z" /></clipPath><linearGradient
       id="linearGradient1166"
       gradientTransform="matrix(-7.874016e-5,0,0,-7.874016e-5,495.3164,281.5074)"
       gradientUnits="userSpaceOnUse"
       y2="189846"
       x2="254332"
       y1="189846"
       x1="0"><stop
         id="stop1162"
         offset="0"
         style="stop-opacity:1;stop-color:#c0c0c0" /><stop
         id="stop1164"
         offset="1"
         style="stop-opacity:1;stop-color:#6e6e6e" /></linearGradient><clipPath
       id="clipPath1176"
       clipPathUnits="userSpaceOnUse"><path
         style="clip-rule:evenodd"
         id="path1174"
         d="m 495.8725,282.8551 c 1.772,6.2007 2.0691,12.1005 3.6151,18.6268 -5.4807,0.9987 -10.8338,0.5774 -15.3234,0.363 -0.6746,-6.4183 -0.0766,-7.2937 -2.6815,-16.9873 5.9516,-0.09 9.4007,-0.7575 14.3898,-2.0025 z" /></clipPath><clipPath
       id="clipPath1182"
       clipPathUnits="userSpaceOnUse"><path
         id="path1180"
         d="M 0,0 H 960 V 540 H 0 Z" /></clipPath><linearGradient
       id="linearGradient1190"
       gradientTransform="matrix(-7.874016e-5,0,0,-7.874016e-5,499.4876,302.1185)"
       gradientUnits="userSpaceOnUse"
       y2="122322.2"
       x2="228662"
       y1="122322.2"
       x1="0"><stop
         id="stop1186"
         offset="0"
         style="stop-opacity:1;stop-color:#c0c0c0" /><stop
         id="stop1188"
         offset="1"
         style="stop-opacity:1;stop-color:#6e6e6e" /></linearGradient><clipPath
       id="clipPath1200"
       clipPathUnits="userSpaceOnUse"><path
         style="clip-rule:evenodd"
         id="path1198"
         d="m 499.5793,305.3842 c 1.7721,6.2007 0.7041,14.148 0.8852,21.3567 -5.4807,0.9987 -12.3125,-0.9013 -16.8021,-1.1157 -0.6746,-6.4183 1.8571,-12.7533 0.1622,-21.992 5.9516,-0.09 10.7656,2.0861 15.7547,1.751 z" /></clipPath><clipPath
       id="clipPath1206"
       clipPathUnits="userSpaceOnUse"><path
         id="path1204"
         d="M 0,0 H 960 V 540 H 0 Z" /></clipPath><linearGradient
       id="linearGradient1214"
       gradientTransform="matrix(-7.874016e-5,0,0,-7.874016e-5,500.6204,327.0291)"
       gradientUnits="userSpaceOnUse"
       y2="148581.41"
       x2="-0.42416981"
       y1="148581.41"
       x1="-216855.5"><stop
         id="stop1210"
         offset="0"
         style="stop-opacity:1;stop-color:#6e6e6e" /><stop
         id="stop1212"
         offset="1"
         style="stop-opacity:1;stop-color:#c0c0c0" /></linearGradient><linearGradient
       id="linearGradient1224"
       gradientTransform="matrix(-7.874016e-5,0,0,-7.874016e-5,500.6204,327.0291)"
       gradientUnits="userSpaceOnUse"
       y2="148581.41"
       x2="216854.7"
       y1="148581.41"
       x1="-0.42416981"><stop
         id="stop1220"
         offset="0"
         style="stop-opacity:1;stop-color:#c0c0c0" /><stop
         id="stop1222"
         offset="1"
         style="stop-opacity:1;stop-color:#6e6e6e" /></linearGradient><linearGradient
       id="linearGradient1234"
       gradientTransform="matrix(-7.874016e-5,0,0,-7.874016e-5,500.6204,327.0291)"
       gradientUnits="userSpaceOnUse"
       y2="148581.41"
       x2="433709.69"
       y1="148581.41"
       x1="216854.7"><stop
         id="stop1230"
         offset="0"
         style="stop-opacity:1;stop-color:#6e6e6e" /><stop
         id="stop1232"
         offset="1"
         style="stop-opacity:1;stop-color:#c0c0c0" /></linearGradient><clipPath
       id="clipPath1244"
       clipPathUnits="userSpaceOnUse"><path
         id="path1242"
         d="M 0,0 H 960 V 540 H 0 Z" /></clipPath></defs><g
     transform="matrix(1.3333333,0,0,-1.3333333,0,720)"
     id="g842"><g
       id="g844" /><g
       id="g846"><g
         clip-path="url(#clipPath852)"
         id="g848"><g
           clip-path="url(#clipPath858)"
           id="g854"><path
             id="path860"
             style="fill:#000000;fill-opacity:0;fill-rule:nonzero;stroke:none"
             d="M 0,540 H 959.76 V 0 H 0 Z" /></g></g></g><g
       id="g862"><g
         clip-path="url(#clipPath868)"
         id="g864"><path
           id="path870"
           style="fill:#000000;fill-opacity:0;fill-rule:nonzero;stroke:none"
           d="M 0,540 H 960 V 0 H 0 Z" /><path
           id="path872"
           style="fill:#fff6f5;fill-opacity:1;fill-rule:nonzero;stroke:none"
           d="m 327.8376,199.7678 94.9107,261.1524 94.9108,-261.1524 z" /><path
           id="path874"
           style="fill:#fff6f5;fill-opacity:1;fill-rule:evenodd;stroke:none"
           d="m 327.1272,199.7678 c -19.9079,50.6772 -29.0306,72.9224 -26.9634,103.1973 2.0672,30.2748 20.8517,38.348 19.9529,46.86 -0.8989,8.5121 -15.9084,22.5525 -15.6387,32.6441 0.2696,10.0915 9.9763,13.3383 17.2564,27.9053 7.2802,14.567 17.2566,50.9844 26.4241,59.4964 9.1675,8.512 15.5488,-7.1079 28.581,-8.4243 13.0322,-1.3163 31.3223,-0.3948 49.6125,0.5266" /><g
           transform="matrix(7.874016e-5,0,0,-7.874016e-5,299.8771,472.397)"
           id="g876"><path
             id="path878"
             style="fill:none;stroke:#2f528f;stroke-width:12700;stroke-linecap:butt;stroke-linejoin:miter;stroke-miterlimit:8;stroke-dasharray:none;stroke-opacity:1"
             d="M 346076.1,3462391 C 93245.44,2818791 -22612.45,2536276 3641.293,2151786 29895.03,1767295 268458.3,1664766 257042.9,1556663 245627.6,1448560 55006.8,1270246 58431.27,1142084 61855.73,1013921 185130.6,972686.6 277588.2,787685.9 370045.9,602685.1 496746.7,140184.5 613174.1,32081.57 729601.6,-76021.38 810643.8,122352 976152.8,139069.5 c 165509.2,16717.6 397793.2,5014.6 630078.2,-6687" /></g><path
           id="path880"
           style="fill:#fff6f5;fill-opacity:1;fill-rule:evenodd;stroke:none"
           d="m 518.3695,199.7678 c 19.9079,50.6772 29.0306,72.9224 26.9634,103.1973 -2.0672,30.2748 -20.8517,38.348 -19.9529,46.86 0.8988,8.5121 15.9084,22.5525 15.6387,32.6441 -0.2696,10.0915 -9.9763,13.3383 -17.2564,27.9053 -7.2802,14.567 -17.2566,50.9844 -26.4241,59.4964 -9.1675,8.512 -15.5488,-7.1079 -28.581,-8.4243 -13.0322,-1.3163 -31.3223,-0.3948 -49.6125,0.5266" /><g
           transform="matrix(-7.874016e-5,0,0,-7.874016e-5,545.6196,472.397)"
           id="g882"><path
             id="path884"
             style="fill:none;stroke:#2f528f;stroke-width:12700;stroke-linecap:butt;stroke-linejoin:miter;stroke-miterlimit:8;stroke-dasharray:none;stroke-opacity:1"
             d="M 346076.1,3462391 C 93245.44,2818791 -22612.45,2536276 3641.293,2151786 29895.03,1767295 268458.3,1664766 257042.9,1556663 245627.6,1448560 55006.8,1270246 58431.27,1142084 61855.73,1013921 185130.6,972686.6 277588.2,787685.9 370045.9,602685.1 496746.7,140184.5 613174.1,32081.57 729601.6,-76021.38 810643.8,122352 976152.8,139069.5 c 165509.2,16717.6 397793.2,5014.6 630078.2,-6687" /></g><path
           id="path886"
           style="fill:#ffffff;fill-opacity:1;fill-rule:evenodd;stroke:none"
           d="m 413.4802,201.052 c -3.1956,53.1606 -20.2647,44.7462 -35.5321,59.0062 -15.2674,14.2601 -23.7606,33.792 -25.6973,67.4739 3.1258,-0.2337 5.2239,0.2661 8.4522,-0.3077 6.4157,-19.5592 21.5039,-58.0686 60.4174,-71.7037 2.1635,-20.0866 1.1187,-27.8791 0.7517,-55.0825 -3.5546,-0.4763 -4.2587,0.1698 -8.3919,0.6138 z" /><g
           transform="matrix(7.874016e-5,0,0,-7.874016e-5,352.2508,327.5321)"
           id="g888"><path
             id="path890"
             style="fill:none;stroke:#2f528f;stroke-width:12700;stroke-linecap:butt;stroke-linejoin:miter;stroke-miterlimit:8;stroke-dasharray:none;stroke-opacity:1"
             d="M 777614,1606298 C 737029,931158.4 520252,1038021 326356,856918.6 132460,675815.9 24596,427760.8 0,0 39698,2967.865 66344,-3379.768 107343,3908.655 188823,252309.8 380442,741379.2 874644,914545.6 c 27477,255098.4 14208,354064.4 9546,699547.4 -45143,6049 -54085,-2156 -106576,-7795 z" /></g><path
           id="path892"
           style="fill:#ffffff;fill-opacity:1;fill-rule:evenodd;stroke:none"
           d="m 431.1056,201.052 c 3.1957,53.1606 20.2647,44.7462 35.5321,59.0062 15.2674,14.2601 23.7606,33.792 25.6973,67.4739 -3.1258,-0.2337 -5.2239,0.2661 -8.4522,-0.3077 -6.4157,-19.5592 -21.5038,-58.0686 -60.4174,-71.7037 -2.1635,-20.0866 -1.1187,-27.8791 -0.7516,-55.0825 3.5545,-0.4763 4.2586,0.1698 8.3918,0.6138 z" /><g
           transform="matrix(-7.874016e-5,0,0,-7.874016e-5,492.335,327.5321)"
           id="g894"><path
             id="path896"
             style="fill:none;stroke:#2f528f;stroke-width:12700;stroke-linecap:butt;stroke-linejoin:miter;stroke-miterlimit:8;stroke-dasharray:none;stroke-opacity:1"
             d="M 777614,1606298 C 737029,931158.4 520252,1038021 326356,856918.6 132460,675815.9 24596,427760.8 0,0 39698,2967.865 66344,-3379.768 107343,3908.655 188823,252309.8 380442,741379.2 874644,914545.6 c 27477,255098.4 14208,354064.4 9546,699547.4 -45143,6049 -54085,-2156 -106576,-7795 z" /></g></g></g><g
       id="g898"><g
         clip-path="url(#clipPath904)"
         id="g900"><g
           clip-path="url(#clipPath910)"
           id="g906"><g
             id="g912"><path
               id="path920"
               style="fill:url(#linearGradient918);stroke:none"
               d="M 0,0 H 960 V 540 H 0 Z" /></g><g
             id="g922"><path
               id="path930"
               style="fill:url(#linearGradient928);stroke:none"
               d="M 0,0 H 960 V 540 H 0 Z" /></g><g
             id="g932"><path
               id="path940"
               style="fill:url(#linearGradient938);stroke:none"
               d="M 0,0 H 960 V 540 H 0 Z" /></g></g></g></g><g
       id="g942"><g
         clip-path="url(#clipPath948)"
         id="g944"><g
           clip-path="url(#clipPath954)"
           id="g950"><g
             id="g956"><path
               id="path964"
               style="fill:url(#linearGradient962);stroke:none"
               d="M 0,0 H 960 V 540 H 0 Z" /></g><g
             id="g966"><path
               id="path974"
               style="fill:url(#linearGradient972);stroke:none"
               d="M 0,0 H 960 V 540 H 0 Z" /></g></g></g></g><g
       id="g976"><g
         clip-path="url(#clipPath982)"
         id="g978"><g
           clip-path="url(#clipPath988)"
           id="g984"><g
             id="g990"><path
               id="path998"
               style="fill:url(#linearGradient996);stroke:none"
               d="M 0,0 H 960 V 540 H 0 Z" /></g></g></g></g><g
       id="g1000"><g
         clip-path="url(#clipPath1006)"
         id="g1002"><g
           clip-path="url(#clipPath1012)"
           id="g1008"><g
             id="g1014"><path
               id="path1022"
               style="fill:url(#linearGradient1020);stroke:none"
               d="M 0,0 H 960 V 540 H 0 Z" /></g></g></g></g><g
       id="g1024"><g
         clip-path="url(#clipPath1030)"
         id="g1026"><g
           clip-path="url(#clipPath1036)"
           id="g1032"><g
             id="g1038"><path
               id="path1046"
               style="fill:url(#linearGradient1044);stroke:none"
               d="M 0,0 H 960 V 540 H 0 Z" /></g><g
             id="g1048"><path
               id="path1056"
               style="fill:url(#linearGradient1054);stroke:none"
               d="M 0,0 H 960 V 540 H 0 Z" /></g><g
             id="g1058"><path
               id="path1066"
               style="fill:url(#linearGradient1064);stroke:none"
               d="M 0,0 H 960 V 540 H 0 Z" /></g></g></g></g><g
       id="g1068"><g
         clip-path="url(#clipPath1074)"
         id="g1070"><g
           clip-path="url(#clipPath1080)"
           id="g1076"><g
             id="g1082"><path
               id="path1090"
               style="fill:url(#linearGradient1088);stroke:none"
               d="M 0,0 H 960 V 540 H 0 Z" /></g><g
             id="g1092"><path
               id="path1100"
               style="fill:url(#linearGradient1098);stroke:none"
               d="M 0,0 H 960 V 540 H 0 Z" /></g><g
             id="g1102"><path
               id="path1110"
               style="fill:url(#linearGradient1108);stroke:none"
               d="M 0,0 H 960 V 540 H 0 Z" /></g></g></g></g><g
       id="g1112"><g
         clip-path="url(#clipPath1118)"
         id="g1114"><g
           clip-path="url(#clipPath1124)"
           id="g1120"><g
             id="g1126"><path
               id="path1134"
               style="fill:url(#linearGradient1132);stroke:none"
               d="M 0,0 H 960 V 540 H 0 Z" /></g><g
             id="g1136"><path
               id="path1144"
               style="fill:url(#linearGradient1142);stroke:none"
               d="M 0,0 H 960 V 540 H 0 Z" /></g></g></g></g><g
       id="g1146"><g
         clip-path="url(#clipPath1152)"
         id="g1148"><g
           clip-path="url(#clipPath1158)"
           id="g1154"><g
             id="g1160"><path
               id="path1168"
               style="fill:url(#linearGradient1166);stroke:none"
               d="M 0,0 H 960 V 540 H 0 Z" /></g></g></g></g><g
       id="g1170"><g
         clip-path="url(#clipPath1176)"
         id="g1172"><g
           clip-path="url(#clipPath1182)"
           id="g1178"><g
             id="g1184"><path
               id="path1192"
               style="fill:url(#linearGradient1190);stroke:none"
               d="M 0,0 H 960 V 540 H 0 Z" /></g></g></g></g><g
       id="g1194"><g
         clip-path="url(#clipPath1200)"
         id="g1196"><g
           clip-path="url(#clipPath1206)"
           id="g1202"><g
             id="g1208"><path
               id="path1216"
               style="fill:url(#linearGradient1214);stroke:none"
               d="M 0,0 H 960 V 540 H 0 Z" /></g><g
             id="g1218"><path
               id="path1226"
               style="fill:url(#linearGradient1224);stroke:none"
               d="M 0,0 H 960 V 540 H 0 Z" /></g><g
             id="g1228"><path
               id="path1236"
               style="fill:url(#linearGradient1234);stroke:none"
               d="M 0,0 H 960 V 540 H 0 Z" /></g></g></g></g><g
       id="g1238"><g
         clip-path="url(#clipPath1244)"
         id="g1240"><path
           id="path1246"
           style="fill:#f4b183;fill-opacity:1;fill-rule:nonzero;stroke:none"
           d="m 338.7102,346.2476 c -2.2298,11.1697 3.675,21.7641 13.1886,23.6632 9.5135,1.8992 19.0334,-5.6161 21.2631,-16.7858 2.2298,-11.1697 -3.675,-21.7641 -13.1886,-23.6632 -9.5136,-1.8991 -19.0334,5.6161 -21.2631,16.7858 z" /><g
           transform="matrix(7.721666e-5,1.541428e-5,1.541428e-5,-7.721666e-5,334.6729,366.4721)"
           id="g1248"><path
             id="path1250"
             style="fill:none;stroke:#000000;stroke-width:12700;stroke-linecap:butt;stroke-linejoin:miter;stroke-miterlimit:8;stroke-dasharray:none;stroke-opacity:1"
             d="M 0,261919 C 0,117265.1 99878.55,0 223085,0 346291.4,0 446170,117265.1 446170,261919 446170,406572.9 346291.4,523838 223085,523838 99878.55,523838 0,406572.9 0,261919 Z" /></g><path
           id="path1252"
           style="fill:#f4b183;fill-opacity:1;fill-rule:nonzero;stroke:none"
           d="m 505.8756,346.2476 c 2.2298,11.1697 -3.675,21.7641 -13.1886,23.6632 -9.5135,1.8992 -19.0334,-5.6161 -21.2631,-16.7858 -2.2298,-11.1697 3.675,-21.7641 13.1886,-23.6632 9.5135,-1.8991 19.0334,5.6161 21.2631,16.7858 z" /><g
           transform="matrix(-7.721666e-5,1.541428e-5,-1.541428e-5,-7.721666e-5,509.9129,366.4721)"
           id="g1254"><path
             id="path1256"
             style="fill:none;stroke:#000000;stroke-width:12700;stroke-linecap:butt;stroke-linejoin:miter;stroke-miterlimit:8;stroke-dasharray:none;stroke-opacity:1"
             d="M 0,261919 C 0,117265.1 99878.55,0 223085,0 346291.4,0 446170,117265.1 446170,261919 446170,406572.9 346291.4,523838 223085,523838 99878.55,523838 0,406572.9 0,261919 Z" /></g><path
           id="path1258"
           style="fill:#f4b183;fill-opacity:1;fill-rule:evenodd;stroke:none"
           d="m 375.1126,206.9988 c -1.8214,2.7322 -3.0357,19.5356 -5.7857,32.4642 -2.75,12.9286 -8.75,30.125 -10.7143,45.1072 -1.9643,14.9821 -1.375,37.4464 -1.0714,44.7857 1.1607,-0.2679 1.1964,-0.5179 2.8928,-0.75 1.2678,-17.1607 0.4107,-18.3036 3.75,-31.0715 3.3393,-12.7679 9.5893,-27.9464 11.1429,-51.3214 2.0893,-13.8393 6.0178,-32.0179 4.9285,-37.2857 -1.0893,-5.2678 -3.3214,-4.6608 -5.1428,-1.9285 z" /><path
           id="path1260"
           style="fill:#f4b183;fill-opacity:1;fill-rule:evenodd;stroke:none"
           d="m 469.7579,206.9988 c 1.8214,2.7322 3.0357,19.5356 5.7857,32.4642 2.75,12.9286 8.75,30.125 10.7143,45.1072 1.9644,14.9821 1.375,37.4464 1.0714,44.7857 -1.1607,-0.2679 -1.1963,-0.5179 -2.8928,-0.75 -1.2678,-17.1607 -0.4107,-18.3036 -3.75,-31.0715 -3.3393,-12.7679 -9.5893,-27.9464 -11.1429,-51.3214 -2.0893,-13.8393 -6.0178,-32.0179 -4.9285,-37.2857 1.0893,-5.2678 3.3214,-4.6608 5.1428,-1.9285 z" /><path
           id="path1262"
           style="fill:#f4b183;fill-opacity:1;fill-rule:nonzero;stroke:none"
           d="m 473.6364,402.701 c -6.4858,8.3035 -6.5202,19.1148 -0.0767,24.1478 6.4434,5.033 16.9247,2.3818 23.4105,-5.9216 6.4859,-8.3034 6.5202,-19.1147 0.0768,-24.1477 -6.4434,-5.033 -16.9247,-2.3819 -23.4106,5.9215 z" /><g
           transform="matrix(6.205348e-5,4.847039e-5,4.847039e-5,-6.205348e-5,461.8928,417.7357)"
           id="g1264"><path
             id="path1266"
             style="fill:none;stroke:#000000;stroke-width:12700;stroke-linecap:butt;stroke-linejoin:miter;stroke-miterlimit:8;stroke-dasharray:none;stroke-opacity:1"
             d="M 0,242285.5 C 0,108474.9 84176.51,0 188013.5,0 291850.5,0 376027,108474.9 376027,242285.5 376027,376096.1 291850.5,484571 188013.5,484571 84176.51,484571 0,376096.1 0,242285.5 Z" /></g><path
           id="path1268"
           style="fill:#f4b183;fill-opacity:1;fill-rule:nonzero;stroke:none"
           d="m 370.6261,402.701 c 6.4858,8.3035 6.5202,19.1148 0.0767,24.1478 -6.4434,5.033 -16.9247,2.3818 -23.4105,-5.9216 -6.4859,-8.3034 -6.5202,-19.1147 -0.0768,-24.1477 6.4434,-5.033 16.9247,-2.3819 23.4106,5.9215 z" /><g
           transform="matrix(-6.205348e-5,4.847039e-5,-4.847039e-5,-6.205348e-5,382.3697,417.7357)"
           id="g1270"><path
             id="path1272"
             style="fill:none;stroke:#000000;stroke-width:12700;stroke-linecap:butt;stroke-linejoin:miter;stroke-miterlimit:8;stroke-dasharray:none;stroke-opacity:1"
             d="M 0,242285.5 C 0,108474.9 84176.51,0 188013.5,0 291850.5,0 376027,108474.9 376027,242285.5 376027,376096.1 291850.5,484571 188013.5,484571 84176.51,484571 0,376096.1 0,242285.5 Z" /></g><path
           id="path1274"
           style="fill:#bfbfbf;fill-opacity:1;fill-rule:nonzero;stroke:none"
           d="m 414.9085,294.7346 c 0,20.268 3.3061,36.6985 7.3844,36.6985 4.0783,0 7.3844,-16.4305 7.3844,-36.6985 0,-20.268 -3.3061,-36.6985 -7.3844,-36.6985 -4.0783,0 -7.3844,16.4305 -7.3844,36.6985 z" /><path
           id="path1276"
           style="fill:#f4b183;fill-opacity:1;fill-rule:nonzero;stroke:none"
           d="m 412.1285,259.4702 c 0,26.118 4.5508,47.2908 10.1644,47.2908 5.6137,0 10.1644,-21.1728 10.1644,-47.2908 0,-26.118 -4.5507,-47.2908 -10.1644,-47.2908 -5.6136,0 -10.1644,21.1728 -10.1644,47.2908 z" /><path
           id="path1278"
           style="fill:#bf9000;fill-opacity:0.2;fill-rule:nonzero;stroke:none"
           d="m 406.4857,255.6588 c 0,8.2502 7.0771,14.9383 15.8072,14.9383 8.7301,0 15.8073,-6.6881 15.8073,-14.9383 0,-8.2501 -7.0772,-14.9382 -15.8073,-14.9382 -8.7301,0 -15.8072,6.6881 -15.8072,14.9382 z" /><g
           transform="matrix(7.874016e-5,0,0,-7.874016e-5,406.4857,270.5971)"
           id="g1280"><path
             id="path1282"
             style="fill:none;stroke:#2f528f;stroke-width:12700;stroke-linecap:butt;stroke-linejoin:miter;stroke-miterlimit:8;stroke-dasharray:none;stroke-opacity:1"
             d="M 0,189716 C 0,84938.75 89879.73,0 200752,0 311624.2,0 401504,84938.75 401504,189716 401504,294493.3 311624.2,379432 200752,379432 89879.73,379432 0,294493.3 0,189716 Z" /></g><path
           id="path1284"
           style="fill:#bfbfbf;fill-opacity:1;fill-rule:evenodd;stroke:none"
           d="m 378.8488,260.0428 c -5.6524,6.3748 -2.942,8.6747 0.834,6.7863 3.7761,-1.8884 14.919,-13.271 21.8224,-18.1167 -0.7413,-1.3708 1.0194,-2.2859 -2.085,-1.7842 -8.1081,4.3938 -14.9189,6.7398 -20.5714,13.1146 z" /><path
           id="path1286"
           style="fill:#bfbfbf;fill-opacity:1;fill-rule:evenodd;stroke:none"
           d="m 465.737,260.0428 c 5.6524,6.3748 2.942,8.6747 -0.834,6.7863 -3.7761,-1.8884 -14.919,-13.271 -21.8224,-18.1167 0.7414,-1.3708 -1.0194,-2.2859 2.085,-1.7842 8.1082,4.3938 14.919,6.7398 20.5714,13.1146 z" /><g
           transform="matrix(0.24,0,0,0.24,350.3735,-189.84)"
           id="g1288"><text
             id="text1292"
             style="font-variant:normal;font-weight:bold;font-size:41.66666031px;font-family:Calibri;-inkscape-font-specification:Calibri-Bold;writing-mode:lr-tb;fill:#000000;fill-opacity:1;fill-rule:nonzero;stroke:none"
             transform="matrix(1,0,0,-1,0,2250)"><tspan
               id="tspan1290"
               y="0"
               x="0 24.479162 35.41666">VII</tspan></text>
</g><g
           transform="matrix(0.24,0,0,0.24,354.7346,-128.64)"
           id="g1294"><text
             id="text1298"
             style="font-variant:normal;font-weight:bold;font-size:41.66666031px;font-family:Calibri;-inkscape-font-specification:Calibri-Bold;writing-mode:lr-tb;fill:#000000;fill-opacity:1;fill-rule:nonzero;stroke:none"
             transform="matrix(1,0,0,-1,0,2250)"><tspan
               id="tspan1296"
               y="0"
               x="0">V</tspan></text>
</g><g
           transform="matrix(0.24,0,0,0.24,328.2276,-272.64)"
           id="g1300"><text
             id="text1304"
             style="font-variant:normal;font-weight:bold;font-size:41.66666031px;font-family:Calibri;-inkscape-font-specification:Calibri-Bold;writing-mode:lr-tb;fill:#000000;fill-opacity:1;fill-rule:nonzero;stroke:none"
             transform="matrix(1,0,0,-1,0,2250)"><tspan
               id="tspan1302"
               y="0"
               x="0 14.583331 39.083328 62.541656">rVRG</tspan></text>
</g><g
           transform="matrix(0.24,0,0,0.24,322.1623,-224.88)"
           id="g1306"><text
             id="text1310"
             style="font-variant:normal;font-weight:bold;font-size:41.66666031px;font-family:Calibri;-inkscape-font-specification:Calibri-Bold;writing-mode:lr-tb;fill:#000000;fill-opacity:1;fill-rule:nonzero;stroke:none"
             transform="matrix(1,0,0,-1,0,2250)"><tspan
               id="tspan1308"
               y="0"
               x="0 23.437496 45.833324 60.437489">BötC</tspan></text>
</g><g
           transform="matrix(0.24,0,0,0.24,340.0821,-312.24)"
           id="g1312"><text
             id="text1316"
             style="font-variant:normal;font-weight:bold;font-size:41.66666031px;font-family:Calibri;-inkscape-font-specification:Calibri-Bold;writing-mode:lr-tb;fill:#000000;fill-opacity:1;fill-rule:nonzero;stroke:none"
             transform="matrix(1,0,0,-1,0,2250)"><tspan
               id="tspan1314"
               y="0"
               x="0">c</tspan></text>
</g><g
           transform="matrix(0.24,0,0,0.24,344.2071,-312.24)"
           id="g1318"><text
             id="text1322"
             style="font-variant:normal;font-weight:bold;font-size:41.66666031px;font-family:Calibri;-inkscape-font-specification:Calibri-Bold;writing-mode:lr-tb;fill:#000000;fill-opacity:1;fill-rule:nonzero;stroke:none"
             transform="matrix(1,0,0,-1,0,2250)"><tspan
               id="tspan1320"
               y="0"
               x="0 24.479162 47.91666">VRG</tspan></text>
</g><g
           transform="matrix(0.24,0,0,0.24,310.2046,-247.44)"
           id="g1324"><text
             id="text1328"
             style="font-variant:normal;font-weight:bold;font-size:41.66666031px;font-family:Calibri;-inkscape-font-specification:Calibri-Bold;writing-mode:lr-tb;fill:#000000;fill-opacity:1;fill-rule:nonzero;stroke:none"
             transform="matrix(1,0,0,-1,0,2250)"><tspan
               id="tspan1326"
               y="0"
               x="0 22.39583 36.958328 57.770824 81.208321 103.60415 118.20831">preBötC</tspan></text>
</g><g
           transform="matrix(0.24,0,0,0.24,411.8843,-140.88)"
           id="g1330"><text
             id="text1334"
             style="font-variant:normal;font-weight:bold;font-size:41.66666031px;font-family:Calibri;-inkscape-font-specification:Calibri-Bold;writing-mode:lr-tb;fill:#000000;fill-opacity:1;fill-rule:nonzero;stroke:none"
             transform="matrix(1,0,0,-1,0,2250)"><tspan
               id="tspan1332"
               y="0"
               x="0 22.39583 44.79166 67.187492">Pons</tspan></text>
</g><g
           transform="matrix(0.24,0,0,0.24,404.7593,-192.48)"
           id="g1336"><text
             id="text1340"
             style="font-variant:normal;font-weight:bold;font-size:41.66666031px;font-family:Calibri;-inkscape-font-specification:Calibri-Bold;writing-mode:lr-tb;fill:#000000;fill-opacity:1;fill-rule:nonzero;stroke:none"
             transform="matrix(1,0,0,-1,0,2250)"><tspan
               id="tspan1338"
               y="0"
               x="0 36.458328 57.291656 79.666656 102.04165 112.45831 122.87498">Medulla</tspan></text>
</g><g
           transform="matrix(0.24,0,0,0.24,417.0675,-252.72)"
           id="g1342"><text
             id="text1346"
             style="font-variant:normal;font-weight:bold;font-size:41.66666031px;font-family:Calibri;-inkscape-font-specification:Calibri-Bold;writing-mode:lr-tb;fill:#000000;fill-opacity:1;fill-rule:nonzero;stroke:none"
             transform="matrix(1,0,0,-1,0,2250)"><tspan
               id="tspan1344"
               y="0"
               x="0">X</tspan></text>
</g><g
           transform="matrix(0.24,0,0,0.24,422.5675,-252.72)"
           id="g1348"><text
             id="text1352"
             style="font-variant:normal;font-weight:bold;font-size:41.66666031px;font-family:Calibri;-inkscape-font-specification:Calibri-Bold;writing-mode:lr-tb;fill:#000000;fill-opacity:1;fill-rule:nonzero;stroke:none"
             transform="matrix(1,0,0,-1,0,2250)"><tspan
               id="tspan1350"
               y="0"
               x="0 10.937498">II</tspan></text>
</g><g
           transform="matrix(0.24,0,0,0.24,417.5051,-282.24)"
           id="g1354"><text
             id="text1358"
             style="font-variant:normal;font-weight:bold;font-size:41.66666031px;font-family:Calibri;-inkscape-font-specification:Calibri-Bold;writing-mode:lr-tb;fill:#000000;fill-opacity:1;fill-rule:nonzero;stroke:none"
             transform="matrix(1,0,0,-1,0,2250)"><tspan
               id="tspan1356"
               y="0"
               x="0 24.999996">AP</tspan></text>
</g><g
           transform="matrix(0.24,0,0,0.24,417.0051,-226.56)"
           id="g1360"><text
             id="text1364"
             style="font-variant:normal;font-weight:bold;font-size:41.66666031px;font-family:Calibri;-inkscape-font-specification:Calibri-Bold;writing-mode:lr-tb;fill:#000000;fill-opacity:1;fill-rule:nonzero;stroke:none"
             transform="matrix(1,0,0,-1,0,2250)"><tspan
               id="tspan1362"
               y="0"
               x="0 23.437496">RO</tspan></text>
</g><g
           transform="matrix(0.24,0,0,0.24,378.0532,-278.88)"
           id="g1366"><text
             id="text1370"
             style="font-variant:normal;font-weight:bold;font-size:41.66666031px;font-family:Calibri;-inkscape-font-specification:Calibri-Bold;writing-mode:lr-tb;fill:#000000;fill-opacity:1;fill-rule:nonzero;stroke:none"
             transform="matrix(1,0,0,-1,0,2250)"><tspan
               id="tspan1368"
               y="0"
               x="0 26.041662 49.499992">DRG</tspan></text>
</g><g
           transform="matrix(0.24,0,0,0.24,449.7725,-278.88)"
           id="g1372"><text
             id="text1376"
             style="font-variant:normal;font-weight:bold;font-size:41.66666031px;font-family:Calibri;-inkscape-font-specification:Calibri-Bold;writing-mode:lr-tb;fill:#000000;fill-opacity:1;fill-rule:nonzero;stroke:none"
             transform="matrix(1,0,0,-1,0,2250)"><tspan
               id="tspan1374"
               y="0"
               x="0 27.604162 48.458324">NTS</tspan></text>
</g><g
           transform="matrix(0.24,0,0,0.24,337.765,-99.12)"
           id="g1378"><text
             id="text1382"
             style="font-variant:normal;font-weight:bold;font-size:41.66666031px;font-family:Calibri;-inkscape-font-specification:Calibri-Bold;writing-mode:lr-tb;fill:#000000;fill-opacity:1;fill-rule:nonzero;stroke:none"
             transform="matrix(1,0,0,-1,0,2250)"><tspan
               id="tspan1380"
               y="0"
               x="0 22.39583 45.833324">PRG</tspan></text>
</g><g
           transform="matrix(0.24,0,0,0.24,363.2146,-264.96)"
           id="g1384"><text
             id="text1388"
             style="font-variant:normal;font-weight:bold;font-size:41.66666031px;font-family:Calibri;-inkscape-font-specification:Calibri-Bold;writing-mode:lr-tb;fill:#000000;fill-opacity:1;fill-rule:nonzero;stroke:none"
             transform="matrix(1,0,0,-1,0,2250)"><tspan
               id="tspan1386"
               y="0"
               x="0 27.604162 52.583324">NAd</tspan></text>
</g></g></g></g></svg>
